solid OBJECT
  facet normal 0 -0 1
    outer loop
      vertex 3.7498085498809814 37.861312866210938 114.39743804931641
      vertex -12.250191688537598 15.361311912536621 114.39743804931641
      vertex 0.74980860948562622 6.1168680191040039 114.39743804931641
    endloop
  endfacet
  facet normal -0 0 1
    outer loop
      vertex 26.249809265136719 22.361312866210938 114.39743804931641
      vertex 3.7498085498809814 37.861312866210938 114.39743804931641
      vertex 0.74980860948562622 6.1168680191040039 114.39743804931641
    endloop
  endfacet
  facet normal 0 -0 1
    outer loop
      vertex 0.74980860948562622 6.1168680191040039 114.39743804931641
      vertex 25.310981750488281 -27.918882369995117 114.39743804931641
      vertex 26.249809265136719 22.361312866210938 114.39743804931641
    endloop
  endfacet
  facet normal -0 0 1
    outer loop
      vertex 25.310981750488281 -27.918882369995117 114.39743804931641
      vertex 48.749809265136719 6.8613123893737793 114.39743804931641
      vertex 26.249809265136719 22.361312866210938 114.39743804931641
    endloop
  endfacet
  facet normal -0 0 1
    outer loop
      vertex 5.0731806755065918 -30.320163726806641 114.39743804931641
      vertex 25.310981750488281 -27.918882369995117 114.39743804931641
      vertex 0.74980860948562622 6.1168680191040039 114.39743804931641
    endloop
  endfacet
  facet normal 0.82926642083315549 -0.55885347210030656 0
    outer loop
      vertex 48.749809265136719 6.8613123893737793 54.397438049316406
      vertex 25.310981750488281 -27.918882369995117 54.397438049316406
      vertex 25.310981750488281 -27.918882369995117 34.397438049316406
    endloop
  endfacet
  facet normal 0.82926642083315538 -0.55885347210030656 0
    outer loop
      vertex 48.749809265136719 6.8613123893737793 54.397438049316406
      vertex 25.310981750488281 -27.918882369995117 34.397438049316406
      vertex 48.749809265136719 6.8613123893737793 14.397439002990723
    endloop
  endfacet
  facet normal 0.82926642083315538 -0.55885347210030656 0
    outer loop
      vertex 48.749809265136719 6.8613123893737793 54.397438049316406
      vertex 48.749809265136719 6.8613123893737793 114.39743804931641
      vertex 25.310981750488281 -27.918882369995117 84.397438049316406
    endloop
  endfacet
  facet normal 0.82926642083315538 -0.55885347210030656 0
    outer loop
      vertex 25.310981750488281 -27.918882369995117 14.397439002990723
      vertex 48.749809265136719 6.8613123893737793 14.397439002990723
      vertex 25.310981750488281 -27.918882369995117 34.397438049316406
    endloop
  endfacet
  facet normal 0.82926642083315538 -0.55885347210030656 0
    outer loop
      vertex 48.749809265136719 6.8613123893737793 114.39743804931641
      vertex 25.310981750488281 -27.918882369995117 114.39743804931641
      vertex 25.310981750488281 -27.918882369995117 84.397438049316406
    endloop
  endfacet
  facet normal 0.82926642083315538 -0.55885347210030656 0
    outer loop
      vertex 48.749809265136719 6.8613123893737793 54.397438049316406
      vertex 25.310981750488281 -27.918882369995117 84.397438049316406
      vertex 25.310981750488281 -27.918882369995117 54.397438049316406
    endloop
  endfacet
  facet normal 0.11782683915871932 -0.9930341564990931 0
    outer loop
      vertex 15.192080497741699 -29.119524002075195 54.397438049316406
      vertex 25.310981750488281 -27.918882369995117 54.397438049316406
      vertex 25.310981750488281 -27.918882369995117 84.397438049316406
    endloop
  endfacet
  facet normal 0.11782683915871932 -0.9930341564990931 0
    outer loop
      vertex 15.192080497741699 -29.119524002075195 54.397438049316406
      vertex 25.310981750488281 -27.918882369995117 84.397438049316406
      vertex 25.310981750488281 -27.918882369995117 114.39743804931641
    endloop
  endfacet
  facet normal 0.1178266710026705 -0.99303417645135883 0
    outer loop
      vertex 5.0731806755065918 -30.320163726806641 84.397438049316406
      vertex 5.0731806755065918 -30.320163726806641 54.397438049316406
      vertex 15.192080497741699 -29.119524002075195 54.397438049316406
    endloop
  endfacet
  facet normal 0.1178266710026705 -0.99303417645135883 0
    outer loop
      vertex 15.192080497741699 -29.119524002075195 54.397438049316406
      vertex 5.0731806755065918 -30.320163726806641 114.39743804931641
      vertex 5.0731806755065918 -30.320163726806641 84.397438049316406
    endloop
  endfacet
  facet normal 0.1178267550807021 -0.99303416647522857 1.4379248621697458e-08
    outer loop
      vertex 25.310981750488281 -27.918882369995117 114.39743804931641
      vertex 5.0731806755065918 -30.320163726806641 114.39743804931641
      vertex 15.192080497741699 -29.119524002075195 54.397438049316406
    endloop
  endfacet
  facet normal -0.99303417002246142 -0.11782672518491394 0
    outer loop
      vertex 2.9114947319030762 -12.101648330688477 54.397438049316406
      vertex 5.0731806755065918 -30.320163726806641 54.397438049316406
      vertex 5.0731806755065918 -30.320163726806641 84.397438049316406
    endloop
  endfacet
  facet normal -0.99303416981309223 -0.11782672694946064 0
    outer loop
      vertex 5.0731806755065918 -30.320163726806641 114.39743804931641
      vertex 0.74980860948562622 6.1168680191040039 114.39743804931641
      vertex 0.74980860948562622 6.1168680191040039 84.397438049316406
    endloop
  endfacet
  facet normal -0.99303416981309223 -0.11782672694946064 0
    outer loop
      vertex 5.0731806755065918 -30.320163726806641 114.39743804931641
      vertex 0.74980860948562622 6.1168680191040039 84.397438049316406
      vertex 5.0731806755065918 -30.320163726806641 84.397438049316406
    endloop
  endfacet
  facet normal -0.99303416960372304 -0.11782672871400726 -0
    outer loop
      vertex 0.74980860948562622 6.1168680191040039 84.397438049316406
      vertex 0.74980860948562622 6.1168680191040039 54.397438049316406
      vertex 2.9114947319030762 -12.101648330688477 54.397438049316406
    endloop
  endfacet
  facet normal -0.99303416981309223 -0.11782672694946064 -1.0866670596977975e-09
    outer loop
      vertex 2.9114947319030762 -12.101648330688477 54.397438049316406
      vertex 5.0731806755065918 -30.320163726806641 84.397438049316406
      vertex 0.74980860948562622 6.1168680191040039 84.397438049316406
    endloop
  endfacet
  facet normal -0.57952375459505667 -0.81495534715716089 -0
    outer loop
      vertex 0.74980860948562622 6.1168680191040039 84.397438049316406
      vertex -12.250191688537598 15.361311912536621 84.397438049316406
      vertex -12.250191688537598 15.361311912536621 54.397438049316406
    endloop
  endfacet
  facet normal -0.57952375459505667 -0.81495534715716089 0
    outer loop
      vertex 0.74980860948562622 6.1168680191040039 84.397438049316406
      vertex -12.250191688537598 15.361311912536621 54.397438049316406
      vertex 0.74980860948562622 6.1168680191040039 54.397438049316406
    endloop
  endfacet
  facet normal -0.57952375459505667 -0.81495534715716089 -0
    outer loop
      vertex 0.74980860948562622 6.1168680191040039 114.39743804931641
      vertex -12.250191688537598 15.361311912536621 114.39743804931641
      vertex -12.250191688537598 15.361311912536621 84.397438049316406
    endloop
  endfacet
  facet normal -0.57952375459505667 -0.81495534715716089 0
    outer loop
      vertex 0.74980860948562622 6.1168680191040039 114.39743804931641
      vertex -12.250191688537598 15.361311912536621 84.397438049316406
      vertex 0.74980860948562622 6.1168680191040039 84.397438049316406
    endloop
  endfacet
  facet normal -0.81495533508212459 0.57952377157557733 0
    outer loop
      vertex -28.250190734863281 -7.1386876106262207 34.397438049316406
      vertex -12.250191688537598 15.361311912536621 34.397438049316406
      vertex -12.250191688537598 15.361311912536621 14.397439002990723
    endloop
  endfacet
  facet normal -0.81495533508212459 0.57952377157557733 0
    outer loop
      vertex -28.250190734863281 -7.1386876106262207 34.397438049316406
      vertex -12.250191688537598 15.361311912536621 14.397439002990723
      vertex -28.250190734863281 -7.1386876106262207 14.397439002990723
    endloop
  endfacet
  facet normal -0.81495532456875508 0.57952378636000368 0
    outer loop
      vertex -20.250190734863281 4.1113123893737793 54.397438049316406
      vertex -28.250190734863281 -7.1386876106262207 34.397438049316406
      vertex -28.250190734863281 -7.1386876106262207 54.397438049316406
    endloop
  endfacet
  facet normal -0.81495533508212448 0.57952377157557722 1.2521587593420407e-08
    outer loop
      vertex -28.250190734863281 -7.1386876106262207 34.397438049316406
      vertex -20.250190734863281 4.1113123893737793 54.397438049316406
      vertex -12.250191688537598 15.361311912536621 34.397438049316406
    endloop
  endfacet
  facet normal -0.81495534559549476 0.57952375679114998 0
    outer loop
      vertex -12.250191688537598 15.361311912536621 34.397438049316406
      vertex -20.250190734863281 4.1113123893737793 54.397438049316406
      vertex -12.250191688537598 15.361311912536621 54.397438049316406
    endloop
  endfacet
  facet normal -0.5710644854452438 -0.82090520370086462 -3.1448392392066144e-08
    outer loop
      vertex -11.588505744934082 -18.729425430297852 54.397438049316406
      vertex 17.749809265136719 -39.138687133789062 34.397438049316406
      vertex 5.0731806755065918 -30.320163726806641 54.397438049316406
    endloop
  endfacet
  facet normal -0.57106445200952138 -0.82090522696049695 0
    outer loop
      vertex 17.749809265136719 -39.138687133789062 34.397438049316406
      vertex 17.749809265136719 -39.138687133789062 54.397438049316406
      vertex 5.0731806755065918 -30.320163726806641 54.397438049316406
    endloop
  endfacet
  facet normal -0.57106445200952138 -0.82090522696049695 0
    outer loop
      vertex 5.0731806755065918 -30.320163726806641 14.397439002990723
      vertex 17.749809265136719 -39.138687133789062 14.397439002990723
      vertex 17.749809265136719 -39.138687133789062 34.397438049316406
    endloop
  endfacet
  facet normal -0.57106448246415598 -0.82090520577466497 2.8644493687379634e-08
    outer loop
      vertex 5.0731806755065918 -30.320163726806641 14.397439002990723
      vertex 17.749809265136719 -39.138687133789062 34.397438049316406
      vertex -28.250190734863281 -7.1386876106262207 34.397438049316406
    endloop
  endfacet
  facet normal -0.57106449404948068 -0.82090519771530901 0
    outer loop
      vertex 5.0731806755065918 -30.320163726806641 14.397439002990723
      vertex -28.250190734863281 -7.1386876106262207 34.397438049316406
      vertex -28.250190734863281 -7.1386876106262207 14.397439002990723
    endloop
  endfacet
  facet normal -0.57106450265371789 -0.82090519172975263 -0
    outer loop
      vertex -28.250190734863281 -7.1386876106262207 54.397438049316406
      vertex -28.250190734863281 -7.1386876106262207 34.397438049316406
      vertex -11.588505744934082 -18.729425430297852 54.397438049316406
    endloop
  endfacet
  facet normal -0.57106448246415598 -0.82090520577466508 -2.4959150909209464e-08
    outer loop
      vertex -28.250190734863281 -7.1386876106262207 34.397438049316406
      vertex 17.749809265136719 -39.138687133789062 34.397438049316406
      vertex -11.588505744934082 -18.729425430297852 54.397438049316406
    endloop
  endfacet
  facet normal -0 0 1
    outer loop
      vertex 17.749809265136719 -39.138687133789062 54.397438049316406
      vertex 25.310981750488281 -27.918882369995117 54.397438049316406
      vertex 15.192080497741699 -29.119524002075195 54.397438049316406
    endloop
  endfacet
  facet normal -0 -0 1
    outer loop
      vertex 15.192080497741699 -29.119524002075195 54.397438049316406
      vertex 5.0731806755065918 -30.320163726806641 54.397438049316406
      vertex 17.749809265136719 -39.138687133789062 54.397438049316406
    endloop
  endfacet
  facet normal 0.56730522402137262 0.82350760943543233 0
    outer loop
      vertex 26.249809265136719 22.361312866210938 14.397439002990723
      vertex 3.7498085498809814 37.861312866210938 54.397438049316406
      vertex 26.249809265136719 22.361312866210938 114.39743804931641
    endloop
  endfacet
  facet normal 0.56730522402137262 0.82350760943543222 -0
    outer loop
      vertex 3.7498085498809814 37.861312866210938 54.397438049316406
      vertex 3.7498085498809814 37.861312866210938 114.39743804931641
      vertex 26.249809265136719 22.361312866210938 114.39743804931641
    endloop
  endfacet
  facet normal 0.56730522402137262 0.82350760943543233 -0
    outer loop
      vertex 26.249809265136719 22.361312866210938 14.397439002990723
      vertex 3.7498085498809814 37.861312866210938 14.397439002990723
      vertex 3.7498085498809814 37.861312866210938 54.397438049316406
    endloop
  endfacet
  facet normal 0.56730524808709937 0.8235075928568204 0
    outer loop
      vertex 48.749809265136719 6.8613123893737793 54.397438049316406
      vertex 48.749809265136719 6.8613123893737793 14.397439002990723
      vertex 26.249809265136719 22.361312866210938 14.397439002990723
    endloop
  endfacet
  facet normal 0.56730524808709926 0.82350759285682029 0
    outer loop
      vertex 48.749809265136719 6.8613123893737793 54.397438049316406
      vertex 26.249809265136719 22.361312866210938 114.39743804931641
      vertex 48.749809265136719 6.8613123893737793 114.39743804931641
    endloop
  endfacet
  facet normal 0.56730524808709926 0.82350759285682029 -0
    outer loop
      vertex 26.249809265136719 22.361312866210938 14.397439002990723
      vertex 26.249809265136719 22.361312866210938 114.39743804931641
      vertex 48.749809265136719 6.8613123893737793 54.397438049316406
    endloop
  endfacet
  facet normal -0.81495533209125171 0.57952377578149239 -0
    outer loop
      vertex 3.7498085498809814 37.861312866210938 14.397439002990723
      vertex -12.250191688537598 15.361311912536621 14.397439002990723
      vertex -12.250191688537598 15.361311912536621 34.397438049316406
    endloop
  endfacet
  facet normal -0.81495533209125171 0.57952377578149239 0
    outer loop
      vertex 3.7498085498809814 37.861312866210938 54.397438049316406
      vertex -12.250191688537598 15.361311912536621 54.397438049316406
      vertex -12.250191688537598 15.361311912536621 84.397438049316406
    endloop
  endfacet
  facet normal -0.81495533209125171 0.57952377578149239 0
    outer loop
      vertex -12.250191688537598 15.361311912536621 54.397438049316406
      vertex 3.7498085498809814 37.861312866210938 54.397438049316406
      vertex -12.250191688537598 15.361311912536621 34.397438049316406
    endloop
  endfacet
  facet normal -0.81495533209125171 0.57952377578149239 0
    outer loop
      vertex 3.7498085498809814 37.861312866210938 54.397438049316406
      vertex -12.250191688537598 15.361311912536621 84.397438049316406
      vertex -12.250191688537598 15.361311912536621 114.39743804931641
    endloop
  endfacet
  facet normal -0.81495533209125171 0.57952377578149239 0
    outer loop
      vertex 3.7498085498809814 37.861312866210938 54.397438049316406
      vertex -12.250191688537598 15.361311912536621 114.39743804931641
      vertex 3.7498085498809814 37.861312866210938 114.39743804931641
    endloop
  endfacet
  facet normal -0.81495533209125171 0.57952377578149239 -0
    outer loop
      vertex 3.7498085498809814 37.861312866210938 14.397439002990723
      vertex -12.250191688537598 15.361311912536621 34.397438049316406
      vertex 3.7498085498809814 37.861312866210938 54.397438049316406
    endloop
  endfacet
  facet normal 0 -0 -1
    outer loop
      vertex 26.249809265136719 22.361312866210938 14.397439002990723
      vertex -12.250191688537598 15.361311912536621 14.397439002990723
      vertex 3.7498085498809814 37.861312866210938 14.397439002990723
    endloop
  endfacet
  facet normal 0 0 -1
    outer loop
      vertex 26.249809265136719 22.361312866210938 14.397439002990723
      vertex 48.749809265136719 6.8613123893737793 14.397439002990723
      vertex 25.310981750488281 -27.918882369995117 14.397439002990723
    endloop
  endfacet
  facet normal -0 0 -1
    outer loop
      vertex 5.0731806755065918 -30.320163726806641 14.397439002990723
      vertex -12.250191688537598 15.361311912536621 14.397439002990723
      vertex 26.249809265136719 22.361312866210938 14.397439002990723
    endloop
  endfacet
  facet normal 0 0 -1
    outer loop
      vertex 26.249809265136719 22.361312866210938 14.397439002990723
      vertex 25.310981750488281 -27.918882369995117 14.397439002990723
      vertex 5.0731806755065918 -30.320163726806641 14.397439002990723
    endloop
  endfacet
  facet normal 0 0 -1
    outer loop
      vertex 5.0731806755065918 -30.320163726806641 14.397439002990723
      vertex 25.310981750488281 -27.918882369995117 14.397439002990723
      vertex 17.749809265136719 -39.138687133789062 14.397439002990723
    endloop
  endfacet
  facet normal -0 -0 -1
    outer loop
      vertex -28.250190734863281 -7.1386876106262207 14.397439002990723
      vertex -12.250191688537598 15.361311912536621 14.397439002990723
      vertex 5.0731806755065918 -30.320163726806641 14.397439002990723
    endloop
  endfacet
  facet normal 0.82926643753309748 -0.55885344731974707 0
    outer loop
      vertex 25.310981750488281 -27.918882369995117 34.397438049316406
      vertex 17.749809265136719 -39.138687133789062 34.397438049316406
      vertex 17.749809265136719 -39.138687133789062 14.397439002990723
    endloop
  endfacet
  facet normal 0.82926643753309748 -0.55885344731974707 0
    outer loop
      vertex 25.310981750488281 -27.918882369995117 34.397438049316406
      vertex 17.749809265136719 -39.138687133789062 14.397439002990723
      vertex 25.310981750488281 -27.918882369995117 14.397439002990723
    endloop
  endfacet
  facet normal 0.82926643753309748 -0.55885344731974707 0
    outer loop
      vertex 25.310981750488281 -27.918882369995117 54.397438049316406
      vertex 17.749809265136719 -39.138687133789062 54.397438049316406
      vertex 17.749809265136719 -39.138687133789062 34.397438049316406
    endloop
  endfacet
  facet normal 0.82926643753309748 -0.55885344731974707 0
    outer loop
      vertex 25.310981750488281 -27.918882369995117 54.397438049316406
      vertex 17.749809265136719 -39.138687133789062 34.397438049316406
      vertex 25.310981750488281 -27.918882369995117 34.397438049316406
    endloop
  endfacet
  facet normal 0 -0 1
    outer loop
      vertex 0.74980860948562622 6.1168680191040039 54.397438049316406
      vertex -12.250191688537598 15.361311912536621 54.397438049316406
      vertex -20.250190734863281 4.1113123893737793 54.397438049316406
    endloop
  endfacet
  facet normal -0 0 1
    outer loop
      vertex -11.588505744934082 -18.729425430297852 54.397438049316406
      vertex 0.74980860948562622 6.1168680191040039 54.397438049316406
      vertex -20.250190734863281 4.1113123893737793 54.397438049316406
    endloop
  endfacet
  facet normal 0 0 1
    outer loop
      vertex 0.74980860948562622 6.1168680191040039 54.397438049316406
      vertex -11.588505744934082 -18.729425430297852 54.397438049316406
      vertex 2.9114947319030762 -12.101648330688477 54.397438049316406
    endloop
  endfacet
  facet normal 0 0 1
    outer loop
      vertex -11.588505744934082 -18.729425430297852 54.397438049316406
      vertex 5.0731806755065918 -30.320163726806641 54.397438049316406
      vertex 2.9114947319030762 -12.101648330688477 54.397438049316406
    endloop
  endfacet
  facet normal 0 0 1
    outer loop
      vertex -28.250190734863281 -7.1386876106262207 54.397438049316406
      vertex -11.588505744934082 -18.729425430297852 54.397438049316406
      vertex -20.250190734863281 4.1113123893737793 54.397438049316406
    endloop
  endfacet
  facet normal -0 -0 -1
    outer loop
      vertex 60.768611907958984 -46.138687133789062 14.397439002990723
      vertex 34.255359649658203 -28.522542953491211 14.397439002990723
      vertex 45.077320098876953 -12.855875015258789 14.397439002990723
    endloop
  endfacet
  facet normal -0 0 -1
    outer loop
      vertex 60.768611907958984 -46.138687133789062 14.397439002990723
      vertex 45.077320098876953 -12.855875015258789 14.397439002990723
      vertex 72.78741455078125 -31.138687133789062 14.397439002990723
    endloop
  endfacet
  facet normal 0 -0 -1
    outer loop
      vertex 48.749809265136719 -61.138687133789062 14.397439002990723
      vertex 36.091606140136719 -52.663948059082031 14.397439002990723
      vertex 60.768611907958984 -46.138687133789062 14.397439002990723
    endloop
  endfacet
  facet normal 0 -0 -1
    outer loop
      vertex 60.768611907958984 -46.138687133789062 14.397439002990723
      vertex 36.091606140136719 -52.663948059082031 14.397439002990723
      vertex 34.255359649658203 -28.522542953491211 14.397439002990723
    endloop
  endfacet
  facet normal 0 0 -1
    outer loop
      vertex 70.352752685546875 -6.6639480590820312 14.397439002990723
      vertex 84.806221008300781 -16.138687133789062 14.397439002990723
      vertex 72.78741455078125 -31.138687133789062 14.397439002990723
    endloop
  endfacet
  facet normal -0 0 -1
    outer loop
      vertex 45.077320098876953 -12.855875015258789 14.397439002990723
      vertex 55.899280548095703 2.8107912540435791 14.397439002990723
      vertex 70.352752685546875 -6.6639480590820312 14.397439002990723
    endloop
  endfacet
  facet normal 0 0 -1
    outer loop
      vertex 34.255359649658203 -28.522542953491211 14.397439002990723
      vertex 36.091606140136719 -52.663948059082031 14.397439002990723
      vertex 23.433401107788086 -44.189208984375 14.397439002990723
    endloop
  endfacet
  facet normal 0 0 -1
    outer loop
      vertex 45.077320098876953 -12.855875015258789 14.397439002990723
      vertex 70.352752685546875 -6.6639480590820312 14.397439002990723
      vertex 72.78741455078125 -31.138687133789062 14.397439002990723
    endloop
  endfacet
  facet normal -0.82278641778844042 0.56835069341284894 0
    outer loop
      vertex 23.433401107788086 -44.189208984375 89.397438049316406
      vertex 34.255359649658203 -28.522542953491211 14.397439002990723
      vertex 23.433401107788086 -44.189208984375 14.397439002990723
    endloop
  endfacet
  facet normal -0.82278641778844042 0.56835069341284894 0
    outer loop
      vertex 23.433401107788086 -44.189208984375 164.39744567871094
      vertex 34.255359649658203 -28.522542953491211 164.39744567871094
      vertex 23.433401107788086 -44.189208984375 89.397438049316406
    endloop
  endfacet
  facet normal -0.82278640330288855 0.56835071438320228 -6.4706335302399509e-09
    outer loop
      vertex 23.433401107788086 -44.189208984375 89.397438049316406
      vertex 34.255359649658203 -28.522542953491211 164.39744567871094
      vertex 45.077320098876953 -12.855875015258789 164.39744567871094
    endloop
  endfacet
  facet normal -0.82278639869383519 0.56835072105560758 -1.05883222255197e-08
    outer loop
      vertex 23.433401107788086 -44.189208984375 89.397438049316406
      vertex 45.077320098876953 -12.855875015258789 164.39744567871094
      vertex 55.899280548095703 2.8107912540435791 89.397438049316406
    endloop
  endfacet
  facet normal -0.82278640330288855 0.56835071438320228 1.2647168009507167e-08
    outer loop
      vertex 55.899280548095703 2.8107912540435791 89.397438049316406
      vertex 45.077320098876953 -12.855875015258789 14.397439002990723
      vertex 34.255359649658203 -28.522542953491211 14.397439002990723
    endloop
  endfacet
  facet normal -0.8227863986938353 0.56835072105560769 8.5294787003778249e-09
    outer loop
      vertex 55.899280548095703 2.8107912540435791 89.397438049316406
      vertex 34.255359649658203 -28.522542953491211 14.397439002990723
      vertex 23.433401107788086 -44.189208984375 89.397438049316406
    endloop
  endfacet
  facet normal -0.82278637499017659 0.56835075537076962 -0
    outer loop
      vertex 55.899280548095703 2.8107912540435791 89.397438049316406
      vertex 55.899280548095703 2.8107912540435791 14.397439002990723
      vertex 45.077320098876953 -12.855875015258789 14.397439002990723
    endloop
  endfacet
  facet normal -0.82278637499017648 0.56835075537076962 0
    outer loop
      vertex 55.899280548095703 2.8107912540435791 164.39744567871094
      vertex 55.899280548095703 2.8107912540435791 89.397438049316406
      vertex 45.077320098876953 -12.855875015258789 164.39744567871094
    endloop
  endfacet
  facet normal -0.55633236328444668 -0.8309598676003207 0
    outer loop
      vertex 48.749809265136719 -61.138687133789062 89.397438049316406
      vertex 36.091606140136719 -52.663948059082031 14.397439002990723
      vertex 48.749809265136719 -61.138687133789062 14.397439002990723
    endloop
  endfacet
  facet normal -0.5563323632844468 -0.83095986760032081 0
    outer loop
      vertex 48.749809265136719 -61.138687133789062 89.397438049316406
      vertex 48.749809265136719 -61.138687133789062 164.39744567871094
      vertex 36.091606140136719 -52.663948059082031 164.39744567871094
    endloop
  endfacet
  facet normal -0.55633236328444668 -0.8309598676003207 -0
    outer loop
      vertex 36.091606140136719 -52.663948059082031 164.39744567871094
      vertex 36.091606140136719 -52.663948059082031 14.397439002990723
      vertex 48.749809265136719 -61.138687133789062 89.397438049316406
    endloop
  endfacet
  facet normal -0.55633230540126299 -0.83095990635343886 0
    outer loop
      vertex 36.091606140136719 -52.663948059082031 14.397439002990723
      vertex 36.091606140136719 -52.663948059082031 164.39744567871094
      vertex 23.433401107788086 -44.189208984375 89.397438049316406
    endloop
  endfacet
  facet normal -0.55633230540126299 -0.83095990635343886 1.1531885257174397e-17
    outer loop
      vertex 23.433401107788086 -44.189208984375 89.397438049316406
      vertex 36.091606140136719 -52.663948059082031 164.39744567871094
      vertex 23.433401107788086 -44.189208984375 164.39744567871094
    endloop
  endfacet
  facet normal -0.55633230540126299 -0.83095990635343886 -0
    outer loop
      vertex 23.433401107788086 -44.189208984375 14.397439002990723
      vertex 36.091606140136719 -52.663948059082031 14.397439002990723
      vertex 23.433401107788086 -44.189208984375 89.397438049316406
    endloop
  endfacet
  facet normal 0.78039130036898807 -0.62529146668445723 0
    outer loop
      vertex 84.806221008300781 -16.138687133789062 89.397438049316406
      vertex 72.78741455078125 -31.138687133789062 14.397439002990723
      vertex 84.806221008300781 -16.138687133789062 14.397439002990723
    endloop
  endfacet
  facet normal 0.78039130036898807 -0.62529146668445723 0
    outer loop
      vertex 84.806221008300781 -16.138687133789062 164.39744567871094
      vertex 72.78741455078125 -31.138687133789062 164.39744567871094
      vertex 84.806221008300781 -16.138687133789062 89.397438049316406
    endloop
  endfacet
  facet normal 0.78039130036898807 -0.62529146668445723 0
    outer loop
      vertex 72.78741455078125 -31.138687133789062 14.397439002990723
      vertex 84.806221008300781 -16.138687133789062 89.397438049316406
      vertex 72.78741455078125 -31.138687133789062 164.39744567871094
    endloop
  endfacet
  facet normal 0.78039139721375805 -0.62529134581789836 -0
    outer loop
      vertex 72.78741455078125 -31.138687133789062 14.397439002990723
      vertex 72.78741455078125 -31.138687133789062 164.39744567871094
      vertex 60.768611907958984 -46.138687133789062 164.39744567871094
    endloop
  endfacet
  facet normal 0.78039139721375805 -0.62529134581789836 0
    outer loop
      vertex 72.78741455078125 -31.138687133789062 14.397439002990723
      vertex 60.768611907958984 -46.138687133789062 164.39744567871094
      vertex 60.768611907958984 -46.138687133789062 14.397439002990723
    endloop
  endfacet
  facet normal 0.78039139721375805 -0.62529134581789836 0
    outer loop
      vertex 48.749809265136719 -61.138687133789062 89.397438049316406
      vertex 48.749809265136719 -61.138687133789062 14.397439002990723
      vertex 60.768611907958984 -46.138687133789062 14.397439002990723
    endloop
  endfacet
  facet normal 0.78039139721375805 -0.62529134581789836 0
    outer loop
      vertex 48.749809265136719 -61.138687133789062 164.39744567871094
      vertex 48.749809265136719 -61.138687133789062 89.397438049316406
      vertex 60.768611907958984 -46.138687133789062 164.39744567871094
    endloop
  endfacet
  facet normal 0.78039139721375805 -0.62529134581789836 -0
    outer loop
      vertex 60.768611907958984 -46.138687133789062 14.397439002990723
      vertex 60.768611907958984 -46.138687133789062 164.39744567871094
      vertex 48.749809265136719 -61.138687133789062 89.397438049316406
    endloop
  endfacet
  facet normal 0.54823769591861571 0.83632256263588134 -0
    outer loop
      vertex 55.899280548095703 2.8107912540435791 89.397438049316406
      vertex 70.352752685546875 -6.6639480590820312 14.397439002990723
      vertex 55.899280548095703 2.8107912540435791 14.397439002990723
    endloop
  endfacet
  facet normal 0.54823769591861571 0.83632256263588134 -0
    outer loop
      vertex 55.899280548095703 2.8107912540435791 89.397438049316406
      vertex 55.899280548095703 2.8107912540435791 164.39744567871094
      vertex 70.352752685546875 -6.6639480590820312 164.39744567871094
    endloop
  endfacet
  facet normal 0.54823774169682538 0.83632253262671641 1.2613108055476115e-08
    outer loop
      vertex 84.806221008300781 -16.138687133789062 89.397438049316406
      vertex 70.352752685546875 -6.6639480590820312 14.397439002990723
      vertex 55.899280548095703 2.8107912540435791 89.397438049316406
    endloop
  endfacet
  facet normal 0.54823774169682538 0.83632253262671641 -1.2613106612020598e-08
    outer loop
      vertex 55.899280548095703 2.8107912540435791 89.397438049316406
      vertex 70.352752685546875 -6.6639480590820312 164.39744567871094
      vertex 84.806221008300781 -16.138687133789062 89.397438049316406
    endloop
  endfacet
  facet normal 0.54823778747504215 0.83632250261754315 0
    outer loop
      vertex 84.806221008300781 -16.138687133789062 89.397438049316406
      vertex 70.352752685546875 -6.6639480590820312 164.39744567871094
      vertex 84.806221008300781 -16.138687133789062 164.39744567871094
    endloop
  endfacet
  facet normal 0.54823778747504215 0.83632250261754315 0
    outer loop
      vertex 84.806221008300781 -16.138687133789062 14.397439002990723
      vertex 70.352752685546875 -6.6639480590820312 14.397439002990723
      vertex 84.806221008300781 -16.138687133789062 89.397438049316406
    endloop
  endfacet
  facet normal -0 0 1
    outer loop
      vertex 60.768611907958984 -46.138687133789062 164.39744567871094
      vertex 72.78741455078125 -31.138687133789062 164.39744567871094
      vertex 45.077320098876953 -12.855875015258789 164.39744567871094
    endloop
  endfacet
  facet normal -0 -0 1
    outer loop
      vertex 60.768611907958984 -46.138687133789062 164.39744567871094
      vertex 45.077320098876953 -12.855875015258789 164.39744567871094
      vertex 34.255359649658203 -28.522542953491211 164.39744567871094
    endloop
  endfacet
  facet normal 0 -0 1
    outer loop
      vertex 48.749809265136719 -61.138687133789062 164.39744567871094
      vertex 60.768611907958984 -46.138687133789062 164.39744567871094
      vertex 36.091606140136719 -52.663948059082031 164.39744567871094
    endloop
  endfacet
  facet normal 0 -0 1
    outer loop
      vertex 60.768611907958984 -46.138687133789062 164.39744567871094
      vertex 34.255359649658203 -28.522542953491211 164.39744567871094
      vertex 36.091606140136719 -52.663948059082031 164.39744567871094
    endloop
  endfacet
  facet normal 0 0 1
    outer loop
      vertex 70.352752685546875 -6.6639480590820312 164.39744567871094
      vertex 72.78741455078125 -31.138687133789062 164.39744567871094
      vertex 84.806221008300781 -16.138687133789062 164.39744567871094
    endloop
  endfacet
  facet normal -0 0 1
    outer loop
      vertex 45.077320098876953 -12.855875015258789 164.39744567871094
      vertex 70.352752685546875 -6.6639480590820312 164.39744567871094
      vertex 55.899280548095703 2.8107912540435791 164.39744567871094
    endloop
  endfacet
  facet normal 0 0 1
    outer loop
      vertex 34.255359649658203 -28.522542953491211 164.39744567871094
      vertex 23.433401107788086 -44.189208984375 164.39744567871094
      vertex 36.091606140136719 -52.663948059082031 164.39744567871094
    endloop
  endfacet
  facet normal 0 0 1
    outer loop
      vertex 45.077320098876953 -12.855875015258789 164.39744567871094
      vertex 72.78741455078125 -31.138687133789062 164.39744567871094
      vertex 70.352752685546875 -6.6639480590820312 164.39744567871094
    endloop
  endfacet
  facet normal -0 0 -1
    outer loop
      vertex -51.750190734863281 41.361312866210938 14.397439002990723
      vertex -36.250190734863281 64.861312866210938 14.397439002990723
      vertex -3.4672350883483887 43.132129669189453 14.397439002990723
    endloop
  endfacet
  facet normal 0 0 -1
    outer loop
      vertex -51.750190734863281 41.361312866210938 14.397439002990723
      vertex -3.4672350883483887 43.132129669189453 14.397439002990723
      vertex -18.967235565185547 19.63212776184082 14.397439002990723
    endloop
  endfacet
  facet normal -0 0 -1
    outer loop
      vertex -67.250190734863281 17.861312866210938 14.397439002990723
      vertex -51.750190734863281 41.361312866210938 14.397439002990723
      vertex -18.967235565185547 19.63212776184082 14.397439002990723
    endloop
  endfacet
  facet normal 0 0 -1
    outer loop
      vertex -67.250190734863281 17.861312866210938 14.397439002990723
      vertex -18.967235565185547 19.63212776184082 14.397439002990723
      vertex -34.467235565185547 -3.8678715229034424 14.397439002990723
    endloop
  endfacet
  facet normal 0.8347726714549345 -0.55059475750500186 0
    outer loop
      vertex -34.467235565185547 -3.8678715229034424 44.397438049316406
      vertex -34.467235565185547 -3.8678715229034424 14.397439002990723
      vertex -18.967235565185547 19.63212776184082 14.397439002990723
    endloop
  endfacet
  facet normal 0.8347726714549345 -0.55059475750500186 0
    outer loop
      vertex -34.467235565185547 -3.8678715229034424 44.397438049316406
      vertex -18.967235565185547 19.63212776184082 74.397438049316406
      vertex -34.467235565185547 -3.8678715229034424 74.397438049316406
    endloop
  endfacet
  facet normal 0.8347726714549345 -0.55059475750500186 -0
    outer loop
      vertex -18.967235565185547 19.63212776184082 74.397438049316406
      vertex -34.467235565185547 -3.8678715229034424 44.397438049316406
      vertex -18.967235565185547 19.63212776184082 14.397439002990723
    endloop
  endfacet
  facet normal 0.8347726919118349 -0.55059472648970131 0
    outer loop
      vertex -18.967235565185547 19.63212776184082 14.397439002990723
      vertex -3.4672350883483887 43.132129669189453 44.397438049316406
      vertex -18.967235565185547 19.63212776184082 74.397438049316406
    endloop
  endfacet
  facet normal 0.8347726919118349 -0.55059472648970131 0
    outer loop
      vertex -3.4672350883483887 43.132129669189453 44.397438049316406
      vertex -3.4672350883483887 43.132129669189453 74.397438049316406
      vertex -18.967235565185547 19.63212776184082 74.397438049316406
    endloop
  endfacet
  facet normal 0.8347726919118349 -0.55059472648970131 0
    outer loop
      vertex -3.4672350883483887 43.132129669189453 14.397439002990723
      vertex -3.4672350883483887 43.132129669189453 44.397438049316406
      vertex -18.967235565185547 19.63212776184082 14.397439002990723
    endloop
  endfacet
  facet normal -0.55247822877541997 -0.83352732812378427 0
    outer loop
      vertex -67.250190734863281 17.861312866210938 44.397438049316406
      vertex -67.250190734863281 17.861312866210938 14.397439002990723
      vertex -34.467235565185547 -3.8678715229034424 14.397439002990723
    endloop
  endfacet
  facet normal -0.55247822877541997 -0.83352732812378427 -0
    outer loop
      vertex -67.250190734863281 17.861312866210938 44.397438049316406
      vertex -34.467235565185547 -3.8678715229034424 14.397439002990723
      vertex -34.467235565185547 -3.8678715229034424 44.397438049316406
    endloop
  endfacet
  facet normal -0.55247822877541997 -0.83352732812378427 0
    outer loop
      vertex -67.250190734863281 17.861312866210938 74.397438049316406
      vertex -67.250190734863281 17.861312866210938 44.397438049316406
      vertex -34.467235565185547 -3.8678715229034424 44.397438049316406
    endloop
  endfacet
  facet normal -0.55247822877541997 -0.83352732812378427 -0
    outer loop
      vertex -67.250190734863281 17.861312866210938 74.397438049316406
      vertex -34.467235565185547 -3.8678715229034424 44.397438049316406
      vertex -34.467235565185547 -3.8678715229034424 74.397438049316406
    endloop
  endfacet
  facet normal -0.83477267915733078 0.5505947458271756 -0
    outer loop
      vertex -36.250190734863281 64.861312866210938 44.397438049316406
      vertex -36.250190734863281 64.861312866210938 14.397439002990723
      vertex -51.750190734863281 41.361312866210938 14.397439002990723
    endloop
  endfacet
  facet normal -0.83477267915733089 0.55059474582717571 0
    outer loop
      vertex -36.250190734863281 64.861312866210938 44.397438049316406
      vertex -51.750190734863281 41.361312866210938 74.397438049316406
      vertex -36.250190734863281 64.861312866210938 74.397438049316406
    endloop
  endfacet
  facet normal -0.83477267915733078 0.5505947458271756 0
    outer loop
      vertex -51.750190734863281 41.361312866210938 74.397438049316406
      vertex -36.250190734863281 64.861312866210938 44.397438049316406
      vertex -51.750190734863281 41.361312866210938 14.397439002990723
    endloop
  endfacet
  facet normal -0.83477267915733078 0.5505947458271756 -0
    outer loop
      vertex -51.750190734863281 41.361312866210938 14.397439002990723
      vertex -67.250190734863281 17.861312866210938 44.397438049316406
      vertex -51.750190734863281 41.361312866210938 74.397438049316406
    endloop
  endfacet
  facet normal -0.83477267915733078 0.5505947458271756 0
    outer loop
      vertex -67.250190734863281 17.861312866210938 44.397438049316406
      vertex -67.250190734863281 17.861312866210938 74.397438049316406
      vertex -51.750190734863281 41.361312866210938 74.397438049316406
    endloop
  endfacet
  facet normal -0.83477267915733078 0.5505947458271756 0
    outer loop
      vertex -67.250190734863281 17.861312866210938 14.397439002990723
      vertex -67.250190734863281 17.861312866210938 44.397438049316406
      vertex -51.750190734863281 41.361312866210938 14.397439002990723
    endloop
  endfacet
  facet normal 0.55247820213408727 0.83352734578218046 0
    outer loop
      vertex -3.4672350883483887 43.132129669189453 44.397438049316406
      vertex -3.4672350883483887 43.132129669189453 14.397439002990723
      vertex -36.250190734863281 64.861312866210938 14.397439002990723
    endloop
  endfacet
  facet normal 0.55247820213408727 0.83352734578218046 -0
    outer loop
      vertex -3.4672350883483887 43.132129669189453 44.397438049316406
      vertex -36.250190734863281 64.861312866210938 14.397439002990723
      vertex -36.250190734863281 64.861312866210938 44.397438049316406
    endloop
  endfacet
  facet normal 0.55247820213408727 0.83352734578218046 0
    outer loop
      vertex -3.4672350883483887 43.132129669189453 74.397438049316406
      vertex -3.4672350883483887 43.132129669189453 44.397438049316406
      vertex -36.250190734863281 64.861312866210938 44.397438049316406
    endloop
  endfacet
  facet normal 0.55247820213408727 0.83352734578218046 -0
    outer loop
      vertex -3.4672350883483887 43.132129669189453 74.397438049316406
      vertex -36.250190734863281 64.861312866210938 44.397438049316406
      vertex -36.250190734863281 64.861312866210938 74.397438049316406
    endloop
  endfacet
  facet normal 0 0 1
    outer loop
      vertex -51.750190734863281 41.361312866210938 74.397438049316406
      vertex -18.967235565185547 19.63212776184082 74.397438049316406
      vertex -3.4672350883483887 43.132129669189453 74.397438049316406
    endloop
  endfacet
  facet normal -0 0 1
    outer loop
      vertex -51.750190734863281 41.361312866210938 74.397438049316406
      vertex -3.4672350883483887 43.132129669189453 74.397438049316406
      vertex -36.250190734863281 64.861312866210938 74.397438049316406
    endloop
  endfacet
  facet normal 0 0 1
    outer loop
      vertex -67.250190734863281 17.861312866210938 74.397438049316406
      vertex -34.467235565185547 -3.8678715229034424 74.397438049316406
      vertex -18.967235565185547 19.63212776184082 74.397438049316406
    endloop
  endfacet
  facet normal -0 0 1
    outer loop
      vertex -67.250190734863281 17.861312866210938 74.397438049316406
      vertex -18.967235565185547 19.63212776184082 74.397438049316406
      vertex -51.750190734863281 41.361312866210938 74.397438049316406
    endloop
  endfacet
endsolid OBJECT
