solid OBJECT
  facet normal 0.0023188620711626661 0.0043298616781550538 -0.99998793751551973
    outer loop
      vertex -26.02104377746582 13.861311912536621 54.532539367675781
      vertex -23.426013946533203 -10.338687896728516 54.433773040771484
      vertex -36.687709808349609 -1.1386877298355103 54.442855834960938
    endloop
  endfacet
  facet normal -0.003944879219404381 0.0064953784048947171 -0.99997112357673679
    outer loop
      vertex -23.426013946533203 -10.338687896728516 54.433773040771484
      vertex 11.639410972595215 32.611312866210938 54.574424743652344
      vertex 27.966533660888672 21.361312866210938 54.436939239501953
    endloop
  endfacet
  facet normal -0.00028973736744172492 0.0005696069116483787 -0.99999979580009124
    outer loop
      vertex -23.426013946533203 -10.338687896728516 54.433773040771484
      vertex 27.966533660888672 21.361312866210938 54.436939239501953
      vertex -10.164316177368164 -19.538686752319336 54.424690246582031
    endloop
  endfacet
  facet normal -0.0028865415406016622 0.0080315898628306112 -0.99996358005789887
    outer loop
      vertex 11.639410972595215 32.611312866210938 54.574424743652344
      vertex -26.02104377746582 13.861311912536621 54.532539367675781
      vertex -15.354377746582031 28.861312866210938 54.622226715087891
    endloop
  endfacet
  facet normal -0.0028865024537804381 0.0080313084722112935 -0.99996358243078476
    outer loop
      vertex -15.354377746582031 28.861312866210938 54.622226715087891
      vertex -4.6877107620239258 43.861312866210938 54.711910247802734
      vertex 11.639410972595215 32.611312866210938 54.574424743652344
    endloop
  endfacet
  facet normal -0.00087312592738107275 0.00398759160952204 -0.99999166834742714
    outer loop
      vertex 11.639410972595215 32.611312866210938 54.574424743652344
      vertex -23.426013946533203 -10.338687896728516 54.433773040771484
      vertex -26.02104377746582 13.861311912536621 54.532539367675781
    endloop
  endfacet
  facet normal -0.0015895846036747888 -0.0013041105537106301 -0.99999788625599184
    outer loop
      vertex 16.359079360961914 -37.938686370849609 54.406520843505859
      vertex 3.097381591796875 -28.738687515258789 54.415603637695312
      vertex 44.293655395507812 10.111311912536621 54.299453735351562
    endloop
  endfacet
  facet normal -0.0028865421458675517 -0.0031736670116573541 -0.99999079781372957
    outer loop
      vertex 16.359079360961914 -37.938686370849609 54.406520843505859
      vertex 39.954109191894531 -31.805355072021484 54.318946838378906
      vertex 29.620777130126953 -47.138687133789062 54.397438049316406
    endloop
  endfacet
  facet normal -0.0036899364717207783 -8.302951301212297e-05 -0.99999318871427045
    outer loop
      vertex 39.954109191894531 -31.805355072021484 54.318946838378906
      vertex 16.359079360961914 -37.938686370849609 54.406520843505859
      vertex 44.293655395507812 10.111311912536621 54.299453735351562
    endloop
  endfacet
  facet normal -0.0060557827780596931 0.0034318815656257189 -0.99997577454849607
    outer loop
      vertex 44.293655395507812 10.111311912536621 54.299453735351562
      vertex 3.097381591796875 -28.738687515258789 54.415603637695312
      vertex 27.966533660888672 21.361312866210938 54.436939239501953
    endloop
  endfacet
  facet normal -0.0081588753687241444 0.00037955261582477389 -0.99996664378994637
    outer loop
      vertex 44.293655395507812 10.111311912536621 54.299453735351562
      vertex 60.620777130126953 -1.1386877298355103 54.161968231201172
      vertex 50.287441253662109 -16.472021102905273 54.240459442138672
    endloop
  endfacet
  facet normal -0.0081586010528040646 0.00037961447118106683 -0.9999666460046126
    outer loop
      vertex 44.293655395507812 10.111311912536621 54.299453735351562
      vertex 50.287441253662109 -16.472021102905273 54.240459442138672
      vertex 39.954109191894531 -31.805355072021484 54.318946838378906
    endloop
  endfacet
  facet normal -0.00028991199276737824 0.00056976971385807468 -0.99999979565673391
    outer loop
      vertex -10.164316177368164 -19.538686752319336 54.424690246582031
      vertex 27.966533660888672 21.361312866210938 54.436939239501953
      vertex 3.097381591796875 -28.738687515258789 54.415603637695312
    endloop
  endfacet
  facet normal -0.56999813950646272 -0.82164598274388878 0
    outer loop
      vertex 27.778873443603516 -45.860908508300781 54.573699951171875
      vertex 27.778873443603516 -45.860908508300781 54.548698425292969
      vertex 28.699825286865234 -46.499797821044922 54.548069000244141
    endloop
  endfacet
  facet normal -0.56999813950646272 -0.82164598274388878 -0
    outer loop
      vertex 27.778873443603516 -45.860908508300781 54.573699951171875
      vertex 28.699825286865234 -46.499797821044922 54.548069000244141
      vertex 28.699825286865234 -46.499797821044922 54.573070526123047
    endloop
  endfacet
  facet normal -0.56999738917677323 -0.82164650326747091 0
    outer loop
      vertex 25.936971664428711 -44.583133697509766 54.549961090087891
      vertex 25.936971664428711 -44.583133697509766 54.499961853027344
      vertex 27.778873443603516 -45.860908508300781 54.498699188232422
    endloop
  endfacet
  facet normal -0.56999738917677323 -0.82164650326747091 -0
    outer loop
      vertex 25.936971664428711 -44.583133697509766 54.549961090087891
      vertex 27.778873443603516 -45.860908508300781 54.498699188232422
      vertex 27.778873443603516 -45.860908508300781 54.548698425292969
    endloop
  endfacet
  facet normal -0.56999738917677323 -0.82164650326747091 0
    outer loop
      vertex 25.936971664428711 -44.583133697509766 54.499961853027344
      vertex 25.936971664428711 -44.583133697509766 54.449962615966797
      vertex 27.778873443603516 -45.860908508300781 54.448699951171875
    endloop
  endfacet
  facet normal -0.56999738917677323 -0.82164650326747091 -0
    outer loop
      vertex 25.936971664428711 -44.583133697509766 54.499961853027344
      vertex 27.778873443603516 -45.860908508300781 54.448699951171875
      vertex 27.778873443603516 -45.860908508300781 54.498699188232422
    endloop
  endfacet
  facet normal -0.56999813950646272 -0.82164598274388878 0
    outer loop
      vertex 27.778873443603516 -45.860908508300781 54.448699951171875
      vertex 27.778873443603516 -45.860908508300781 54.423698425292969
      vertex 28.699825286865234 -46.499797821044922 54.423069000244141
    endloop
  endfacet
  facet normal -0.56999813950646272 -0.82164598274388878 -0
    outer loop
      vertex 27.778873443603516 -45.860908508300781 54.448699951171875
      vertex 28.699825286865234 -46.499797821044922 54.423069000244141
      vertex 28.699825286865234 -46.499797821044922 54.448070526123047
    endloop
  endfacet
  facet normal -0.56999951802664417 -0.82164502642527637 0
    outer loop
      vertex -35.766757965087891 -1.7775765657424927 54.617225646972656
      vertex -35.766757965087891 -1.7775765657424927 54.59222412109375
      vertex -34.845809936523438 -2.4164655208587646 54.591594696044922
    endloop
  endfacet
  facet normal -0.56999951802664417 -0.82164502642527637 -0
    outer loop
      vertex -35.766757965087891 -1.7775765657424927 54.617225646972656
      vertex -34.845809936523438 -2.4164655208587646 54.591594696044922
      vertex -34.845809936523438 -2.4164655208587646 54.616592407226562
    endloop
  endfacet
  facet normal -0.56999785230441224 -0.82164618198367922 0
    outer loop
      vertex -34.845809936523438 -2.4164655208587646 54.591594696044922
      vertex -34.845809936523438 -2.4164655208587646 54.541591644287109
      vertex -33.00390625 -3.6942431926727295 54.540332794189453
    endloop
  endfacet
  facet normal -0.56999785230441224 -0.82164618198367911 0
    outer loop
      vertex -34.845809936523438 -2.4164655208587646 54.591594696044922
      vertex -33.00390625 -3.6942431926727295 54.540332794189453
      vertex -33.00390625 -3.6942431926727295 54.59033203125
    endloop
  endfacet
  facet normal -0.56999785230441224 -0.82164618198367911 0
    outer loop
      vertex -34.845809936523438 -2.4164655208587646 54.541591644287109
      vertex -34.845809936523438 -2.4164655208587646 54.491592407226562
      vertex -33.00390625 -3.6942431926727295 54.490333557128906
    endloop
  endfacet
  facet normal -0.56999785230441224 -0.82164618198367911 0
    outer loop
      vertex -34.845809936523438 -2.4164655208587646 54.541591644287109
      vertex -33.00390625 -3.6942431926727295 54.490333557128906
      vertex -33.00390625 -3.6942431926727295 54.540332794189453
    endloop
  endfacet
  facet normal -0.56999951802664417 -0.82164502642527637 0
    outer loop
      vertex -35.766757965087891 -1.7775765657424927 54.492225646972656
      vertex -35.766757965087891 -1.7775765657424927 54.46722412109375
      vertex -34.845809936523438 -2.4164655208587646 54.466594696044922
    endloop
  endfacet
  facet normal -0.56999951802664417 -0.82164502642527637 -0
    outer loop
      vertex -35.766757965087891 -1.7775765657424927 54.492225646972656
      vertex -34.845809936523438 -2.4164655208587646 54.466594696044922
      vertex -34.845809936523438 -2.4164655208587646 54.491592407226562
    endloop
  endfacet
  facet normal -0.56999813950646272 -0.82164598274388878 0
    outer loop
      vertex 28.699825286865234 -46.499797821044922 54.448070526123047
      vertex 28.699825286865234 -46.499797821044922 54.423069000244141
      vertex 29.620777130126953 -47.138687133789062 54.397438049316406
    endloop
  endfacet
  facet normal -0.56999813950646272 -0.82164598274388878 -0
    outer loop
      vertex 27.778873443603516 -45.860908508300781 54.423698425292969
      vertex 29.620777130126953 -47.138687133789062 54.397438049316406
      vertex 28.699825286865234 -46.499797821044922 54.423069000244141
    endloop
  endfacet
  facet normal -0.56999817228273464 -0.82164595999903967 -3.4056488085239878e-06
    outer loop
      vertex 27.778873443603516 -45.860908508300781 54.423698425292969
      vertex 16.359079360961914 -37.938686370849609 54.406520843505859
      vertex 29.620777130126953 -47.138687133789062 54.397438049316406
    endloop
  endfacet
  facet normal -0.56999813950646272 -0.82164598274388878 0
    outer loop
      vertex 29.620777130126953 -47.138687133789062 54.597438812255859
      vertex 28.699825286865234 -46.499797821044922 54.548069000244141
      vertex 28.699825286865234 -46.499797821044922 54.448070526123047
    endloop
  endfacet
  facet normal -0.56999813950646272 -0.82164598274388878 0
    outer loop
      vertex 29.620777130126953 -47.138687133789062 54.597438812255859
      vertex 28.699825286865234 -46.499797821044922 54.448070526123047
      vertex 29.620777130126953 -47.138687133789062 54.397438049316406
    endloop
  endfacet
  facet normal -0.56999832700720465 -0.82164585266949886 -0
    outer loop
      vertex 16.359079360961914 -37.938686370849609 54.406520843505859
      vertex 25.936971664428711 -44.583133697509766 54.449962615966797
      vertex 25.936971664428711 -44.583133697509766 54.499961853027344
    endloop
  endfacet
  facet normal -0.56999738917677323 -0.82164650326747091 -0
    outer loop
      vertex 25.936971664428711 -44.583133697509766 54.449962615966797
      vertex 27.778873443603516 -45.860908508300781 54.423698425292969
      vertex 27.778873443603516 -45.860908508300781 54.448699951171875
    endloop
  endfacet
  facet normal -0.56999813950646272 -0.82164598274388878 0
    outer loop
      vertex 28.699825286865234 -46.499797821044922 54.448070526123047
      vertex 27.778873443603516 -45.860908508300781 54.498699188232422
      vertex 27.778873443603516 -45.860908508300781 54.448699951171875
    endloop
  endfacet
  facet normal -0.56999809093299703 -0.82164601644061974 -0
    outer loop
      vertex 16.359079360961914 -37.938686370849609 54.406520843505859
      vertex 16.359079360961914 -37.938686370849609 54.606521606445312
      vertex 3.097381591796875 -28.738687515258789 54.615604400634766
    endloop
  endfacet
  facet normal -0.56999809093299703 -0.82164601644061974 0
    outer loop
      vertex 16.359079360961914 -37.938686370849609 54.406520843505859
      vertex 3.097381591796875 -28.738687515258789 54.615604400634766
      vertex 3.097381591796875 -28.738687515258789 54.415603637695312
    endloop
  endfacet
  facet normal -0.56999809913111266 -0.82164600742895966 -7.3911895663363345e-05
    outer loop
      vertex 16.359079360961914 -37.938686370849609 54.406520843505859
      vertex 27.778873443603516 -45.860908508300781 54.423698425292969
      vertex 25.936971664428711 -44.583133697509766 54.449962615966797
    endloop
  endfacet
  facet normal -0.56999813950646272 -0.82164598274388878 -0
    outer loop
      vertex 27.778873443603516 -45.860908508300781 54.498699188232422
      vertex 28.699825286865234 -46.499797821044922 54.448070526123047
      vertex 28.699825286865234 -46.499797821044922 54.548069000244141
    endloop
  endfacet
  facet normal -0.56999813950646272 -0.82164598274388878 0
    outer loop
      vertex 27.778873443603516 -45.860908508300781 54.548698425292969
      vertex 27.778873443603516 -45.860908508300781 54.498699188232422
      vertex 28.699825286865234 -46.499797821044922 54.548069000244141
    endloop
  endfacet
  facet normal -0.56999813950646272 -0.82164598274388878 -0
    outer loop
      vertex 27.778873443603516 -45.860908508300781 54.573699951171875
      vertex 28.699825286865234 -46.499797821044922 54.573070526123047
      vertex 29.620777130126953 -47.138687133789062 54.597438812255859
    endloop
  endfacet
  facet normal -0.56999813950646272 -0.82164598274388878 -0
    outer loop
      vertex 28.699825286865234 -46.499797821044922 54.548069000244141
      vertex 29.620777130126953 -47.138687133789062 54.597438812255859
      vertex 28.699825286865234 -46.499797821044922 54.573070526123047
    endloop
  endfacet
  facet normal -0.56999738917677323 -0.82164650326747091 -0
    outer loop
      vertex 27.778873443603516 -45.860908508300781 54.548698425292969
      vertex 27.778873443603516 -45.860908508300781 54.573699951171875
      vertex 25.936971664428711 -44.583133697509766 54.549961090087891
    endloop
  endfacet
  facet normal -0.56999832700720465 -0.82164585266949886 -0
    outer loop
      vertex 16.359079360961914 -37.938686370849609 54.606521606445312
      vertex 25.936971664428711 -44.583133697509766 54.499961853027344
      vertex 25.936971664428711 -44.583133697509766 54.549961090087891
    endloop
  endfacet
  facet normal -0.56999803076473798 -0.82164605485608222 7.3917227320836936e-05
    outer loop
      vertex 27.778873443603516 -45.860908508300781 54.573699951171875
      vertex 16.359079360961914 -37.938686370849609 54.606521606445312
      vertex 25.936971664428711 -44.583133697509766 54.549961090087891
    endloop
  endfacet
  facet normal -0.56999832700720476 -0.82164585266949897 0
    outer loop
      vertex 16.359079360961914 -37.938686370849609 54.606521606445312
      vertex 16.359079360961914 -37.938686370849609 54.406520843505859
      vertex 25.936971664428711 -44.583133697509766 54.499961853027344
    endloop
  endfacet
  facet normal -0.56999816913348778 -0.82164596218375874 3.4054465028156236e-06
    outer loop
      vertex 29.620777130126953 -47.138687133789062 54.597438812255859
      vertex 16.359079360961914 -37.938686370849609 54.606521606445312
      vertex 27.778873443603516 -45.860908508300781 54.573699951171875
    endloop
  endfacet
  facet normal -0.56999817071136982 -0.82164596109619636 -0
    outer loop
      vertex 3.097381591796875 -28.738687515258789 54.415603637695312
      vertex 3.097381591796875 -28.738687515258789 54.615604400634766
      vertex -10.164316177368164 -19.538686752319336 54.624687194824219
    endloop
  endfacet
  facet normal -0.56999817071136982 -0.82164596109619636 0
    outer loop
      vertex 3.097381591796875 -28.738687515258789 54.415603637695312
      vertex -10.164316177368164 -19.538686752319336 54.624687194824219
      vertex -10.164316177368164 -19.538686752319336 54.424690246582031
    endloop
  endfacet
  facet normal -0.56999809093299703 -0.82164601644061974 -0
    outer loop
      vertex -10.164316177368164 -19.538686752319336 54.424690246582031
      vertex -10.164316177368164 -19.538686752319336 54.624687194824219
      vertex -23.426013946533203 -10.338687896728516 54.633769989013672
    endloop
  endfacet
  facet normal -0.56999809093299703 -0.82164601644061974 0
    outer loop
      vertex -10.164316177368164 -19.538686752319336 54.424690246582031
      vertex -23.426013946533203 -10.338687896728516 54.633769989013672
      vertex -23.426013946533203 -10.338687896728516 54.433773040771484
    endloop
  endfacet
  facet normal -0.56999817512149431 -0.82164595803677309 0
    outer loop
      vertex -23.426013946533203 -10.338687896728516 54.433773040771484
      vertex -33.00390625 -3.6942431926727295 54.540332794189453
      vertex -33.00390625 -3.6942431926727295 54.490333557128906
    endloop
  endfacet
  facet normal -0.56999807350120624 -0.8216460281395741 2.5443585960459763e-05
    outer loop
      vertex -33.00390625 -3.6942431926727295 54.490333557128906
      vertex -34.845809936523438 -2.4164655208587646 54.466594696044922
      vertex -23.426013946533203 -10.338687896728516 54.433773040771484
    endloop
  endfacet
  facet normal -0.56999817512149431 -0.82164595803677309 -0
    outer loop
      vertex -33.00390625 -3.6942431926727295 54.540332794189453
      vertex -23.426013946533203 -10.338687896728516 54.433773040771484
      vertex -23.426013946533203 -10.338687896728516 54.633769989013672
    endloop
  endfacet
  facet normal -0.56999947372986604 -0.82164505212691363 9.0901248528739827e-05
    outer loop
      vertex -35.766757965087891 -1.7775765657424927 54.46722412109375
      vertex -36.687709808349609 -1.1386877298355103 54.442855834960938
      vertex -34.845809936523438 -2.4164655208587646 54.466594696044922
    endloop
  endfacet
  facet normal -0.56999822475405892 -0.82164592190726737 -5.2824029022690719e-05
    outer loop
      vertex -23.426013946533203 -10.338687896728516 54.433773040771484
      vertex -34.845809936523438 -2.4164655208587646 54.466594696044922
      vertex -36.687709808349609 -1.1386877298355103 54.442855834960938
    endloop
  endfacet
  facet normal -0.56999785230441224 -0.82164618198367922 0
    outer loop
      vertex -36.687709808349609 -1.1386877298355103 54.442855834960938
      vertex -35.766757965087891 -1.7775765657424927 54.46722412109375
      vertex -35.766757965087891 -1.7775765657424927 54.492225646972656
    endloop
  endfacet
  facet normal -0.56999785230441224 -0.82164618198367911 0
    outer loop
      vertex -36.687709808349609 -1.1386877298355103 54.442855834960938
      vertex -35.766757965087891 -1.7775765657424927 54.492225646972656
      vertex -35.766757965087891 -1.7775765657424927 54.59222412109375
    endloop
  endfacet
  facet normal -0.56999785230441224 -0.82164618198367911 0
    outer loop
      vertex -36.687709808349609 -1.1386877298355103 54.442855834960938
      vertex -35.766757965087891 -1.7775765657424927 54.59222412109375
      vertex -36.687709808349609 -1.1386877298355103 54.642856597900391
    endloop
  endfacet
  facet normal -0.56999785230441236 -0.82164618198367922 0
    outer loop
      vertex -33.00390625 -3.6942431926727295 54.490333557128906
      vertex -34.845809936523438 -2.4164655208587646 54.491592407226562
      vertex -34.845809936523438 -2.4164655208587646 54.466594696044922
    endloop
  endfacet
  facet normal -0.56999951802664417 -0.82164502642527637 -0
    outer loop
      vertex -35.766757965087891 -1.7775765657424927 54.492225646972656
      vertex -34.845809936523438 -2.4164655208587646 54.491592407226562
      vertex -34.845809936523438 -2.4164655208587646 54.541591644287109
    endloop
  endfacet
  facet normal -0.56999817512149431 -0.82164595803677309 -0
    outer loop
      vertex -33.00390625 -3.6942431926727295 54.540332794189453
      vertex -23.426013946533203 -10.338687896728516 54.633769989013672
      vertex -33.00390625 -3.6942431926727295 54.59033203125
    endloop
  endfacet
  facet normal -0.56999809703059257 -0.82164601181655506 -2.5445096668053114e-05
    outer loop
      vertex -23.426013946533203 -10.338687896728516 54.633769989013672
      vertex -34.845809936523438 -2.4164655208587646 54.616592407226562
      vertex -33.00390625 -3.6942431926727295 54.59033203125
    endloop
  endfacet
  facet normal -0.56999951802664417 -0.82164502642527637 -0
    outer loop
      vertex -34.845809936523438 -2.4164655208587646 54.541591644287109
      vertex -34.845809936523438 -2.4164655208587646 54.591594696044922
      vertex -35.766757965087891 -1.7775765657424927 54.59222412109375
    endloop
  endfacet
  facet normal -0.56999955786769196 -0.82164499375800759 -9.090126109354021e-05
    outer loop
      vertex -36.687709808349609 -1.1386877298355103 54.642856597900391
      vertex -35.766757965087891 -1.7775765657424927 54.617225646972656
      vertex -34.845809936523438 -2.4164655208587646 54.616592407226562
    endloop
  endfacet
  facet normal -0.56999785230441224 -0.82164618198367922 0
    outer loop
      vertex -35.766757965087891 -1.7775765657424927 54.59222412109375
      vertex -35.766757965087891 -1.7775765657424927 54.617225646972656
      vertex -36.687709808349609 -1.1386877298355103 54.642856597900391
    endloop
  endfacet
  facet normal -0.56999817589716439 -0.82164595580087285 5.282021852672721e-05
    outer loop
      vertex -23.426013946533203 -10.338687896728516 54.633769989013672
      vertex -36.687709808349609 -1.1386877298355103 54.642856597900391
      vertex -34.845809936523438 -2.4164655208587646 54.616592407226562
    endloop
  endfacet
  facet normal -0.56999951802664417 -0.82164502642527637 0
    outer loop
      vertex -35.766757965087891 -1.7775765657424927 54.59222412109375
      vertex -35.766757965087891 -1.7775765657424927 54.492225646972656
      vertex -34.845809936523438 -2.4164655208587646 54.541591644287109
    endloop
  endfacet
  facet normal -0.56999785230441236 -0.82164618198367922 0
    outer loop
      vertex -33.00390625 -3.6942431926727295 54.59033203125
      vertex -34.845809936523438 -2.4164655208587646 54.616592407226562
      vertex -34.845809936523438 -2.4164655208587646 54.591594696044922
    endloop
  endfacet
  facet normal 0.82926691604064184 -0.55885273727561113 0
    outer loop
      vertex 59.329109191894531 -3.0553543567657471 54.346778869628906
      vertex 59.329109191894531 -3.0553543567657471 54.321781158447266
      vertex 59.974941253662109 -2.0970211029052734 54.316875457763672
    endloop
  endfacet
  facet normal 0.82926691604064184 -0.55885273727561113 -0
    outer loop
      vertex 59.329109191894531 -3.0553543567657471 54.346778869628906
      vertex 59.974941253662109 -2.0970211029052734 54.316875457763672
      vertex 59.974941253662109 -2.0970211029052734 54.341873168945312
    endloop
  endfacet
  facet normal 0.8292661833664251 -0.55885382447012255 0
    outer loop
      vertex 58.037441253662109 -4.9720211029052734 54.331592559814453
      vertex 58.037441253662109 -4.9720211029052734 54.281589508056641
      vertex 59.329109191894531 -3.0553543567657471 54.271781921386719
    endloop
  endfacet
  facet normal 0.8292661833664251 -0.55885382447012255 -0
    outer loop
      vertex 58.037441253662109 -4.9720211029052734 54.331592559814453
      vertex 59.329109191894531 -3.0553543567657471 54.271781921386719
      vertex 59.329109191894531 -3.0553543567657471 54.321781158447266
    endloop
  endfacet
  facet normal 0.8292661833664251 -0.55885382447012255 0
    outer loop
      vertex 58.037441253662109 -4.9720211029052734 54.281589508056641
      vertex 58.037441253662109 -4.9720211029052734 54.231590270996094
      vertex 59.329109191894531 -3.0553543567657471 54.221778869628906
    endloop
  endfacet
  facet normal 0.8292661833664251 -0.55885382447012255 -0
    outer loop
      vertex 58.037441253662109 -4.9720211029052734 54.281589508056641
      vertex 59.329109191894531 -3.0553543567657471 54.221778869628906
      vertex 59.329109191894531 -3.0553543567657471 54.271781921386719
    endloop
  endfacet
  facet normal 0.82926691604064184 -0.55885273727561113 0
    outer loop
      vertex 59.329109191894531 -3.0553543567657471 54.221778869628906
      vertex 59.329109191894531 -3.0553543567657471 54.196781158447266
      vertex 59.974941253662109 -2.0970211029052734 54.191875457763672
    endloop
  endfacet
  facet normal 0.82926691604064184 -0.55885273727561113 -0
    outer loop
      vertex 59.329109191894531 -3.0553543567657471 54.221778869628906
      vertex 59.974941253662109 -2.0970211029052734 54.191875457763672
      vertex 59.974941253662109 -2.0970211029052734 54.216873168945312
    endloop
  endfacet
  facet normal 0.82926685991973359 -0.55885282055194518 0
    outer loop
      vertex 30.266609191894531 -46.180355072021484 54.567531585693359
      vertex 30.266609191894531 -46.180355072021484 54.542533874511719
      vertex 30.912443161010742 -45.222019195556641 54.537628173828125
    endloop
  endfacet
  facet normal 0.82926685991973359 -0.55885282055194518 -0
    outer loop
      vertex 30.266609191894531 -46.180355072021484 54.567531585693359
      vertex 30.912443161010742 -45.222019195556641 54.537628173828125
      vertex 30.912443161010742 -45.222019195556641 54.562625885009766
    endloop
  endfacet
  facet normal 0.82926621142599299 -0.55885378283338139 0
    outer loop
      vertex 30.912443161010742 -45.222019195556641 54.537628173828125
      vertex 30.912443161010742 -45.222019195556641 54.487628936767578
      vertex 32.204109191894531 -43.305355072021484 54.477817535400391
    endloop
  endfacet
  facet normal 0.82926621142599299 -0.55885378283338139 -0
    outer loop
      vertex 30.912443161010742 -45.222019195556641 54.537628173828125
      vertex 32.204109191894531 -43.305355072021484 54.477817535400391
      vertex 32.204109191894531 -43.305355072021484 54.527816772460938
    endloop
  endfacet
  facet normal 0.82926621142599288 -0.55885378283338127 0
    outer loop
      vertex 30.912443161010742 -45.222019195556641 54.487628936767578
      vertex 30.912443161010742 -45.222019195556641 54.437625885009766
      vertex 32.204109191894531 -43.305355072021484 54.427814483642578
    endloop
  endfacet
  facet normal 0.82926621142599288 -0.55885378283338127 0
    outer loop
      vertex 30.912443161010742 -45.222019195556641 54.487628936767578
      vertex 32.204109191894531 -43.305355072021484 54.427814483642578
      vertex 32.204109191894531 -43.305355072021484 54.477817535400391
    endloop
  endfacet
  facet normal 0.82926685991973359 -0.55885282055194518 0
    outer loop
      vertex 30.266609191894531 -46.180355072021484 54.442531585693359
      vertex 30.266609191894531 -46.180355072021484 54.417533874511719
      vertex 30.912443161010742 -45.222019195556641 54.412628173828125
    endloop
  endfacet
  facet normal 0.82926685991973359 -0.55885282055194518 -0
    outer loop
      vertex 30.266609191894531 -46.180355072021484 54.442531585693359
      vertex 30.912443161010742 -45.222019195556641 54.412628173828125
      vertex 30.912443161010742 -45.222019195556641 54.437625885009766
    endloop
  endfacet
  facet normal 0.82926541847525204 -0.55885495946718144 0
    outer loop
      vertex 59.974941253662109 -2.0970211029052734 54.216873168945312
      vertex 59.974941253662109 -2.0970211029052734 54.191875457763672
      vertex 60.620777130126953 -1.1386877298355103 54.161968231201172
    endloop
  endfacet
  facet normal 0.82926720352558436 -0.55885229695745786 0.0001238637578948065
    outer loop
      vertex 59.329109191894531 -3.0553543567657471 54.196781158447266
      vertex 60.620777130126953 -1.1386877298355103 54.161968231201172
      vertex 59.974941253662109 -2.0970211029052734 54.191875457763672
    endloop
  endfacet
  facet normal 0.82926644149242179 -0.55885344049195307 3.2631320434676609e-05
    outer loop
      vertex 59.329109191894531 -3.0553543567657471 54.196781158447266
      vertex 50.287441253662109 -16.472021102905273 54.240459442138672
      vertex 60.620777130126953 -1.1386877298355103 54.161968231201172
    endloop
  endfacet
  facet normal 0.82926541847525204 -0.55885495946718144 0
    outer loop
      vertex 59.974941253662109 -2.0970211029052734 54.216873168945312
      vertex 60.620777130126953 -1.1386877298355103 54.161968231201172
      vertex 59.974941253662109 -2.0970211029052734 54.316875457763672
    endloop
  endfacet
  facet normal 0.8292661833664251 -0.55885382447012255 -0
    outer loop
      vertex 59.329109191894531 -3.0553543567657471 54.221778869628906
      vertex 58.037441253662109 -4.9720211029052734 54.231590270996094
      vertex 59.329109191894531 -3.0553543567657471 54.196781158447266
    endloop
  endfacet
  facet normal 0.82926643804153222 -0.55885344574368467 3.0303790088032502e-05
    outer loop
      vertex 50.287441253662109 -16.472021102905273 54.240459442138672
      vertex 59.329109191894531 -3.0553543567657471 54.196781158447266
      vertex 58.037441253662109 -4.9720211029052734 54.231590270996094
    endloop
  endfacet
  facet normal 0.82926642759115821 -0.55885346207230224 -0
    outer loop
      vertex 58.037441253662109 -4.9720211029052734 54.281589508056641
      vertex 50.287441253662109 -16.472021102905273 54.240459442138672
      vertex 58.037441253662109 -4.9720211029052734 54.231590270996094
    endloop
  endfacet
  facet normal 0.82926691604064184 -0.55885273727561113 0
    outer loop
      vertex 59.974941253662109 -2.0970211029052734 54.216873168945312
      vertex 59.329109191894531 -3.0553543567657471 54.271781921386719
      vertex 59.329109191894531 -3.0553543567657471 54.221778869628906
    endloop
  endfacet
  facet normal 0.82926691604064184 -0.55885273727561113 -0
    outer loop
      vertex 59.329109191894531 -3.0553543567657471 54.271781921386719
      vertex 59.974941253662109 -2.0970211029052734 54.216873168945312
      vertex 59.974941253662109 -2.0970211029052734 54.316875457763672
    endloop
  endfacet
  facet normal 0.82926691604064184 -0.55885273727561113 0
    outer loop
      vertex 59.329109191894531 -3.0553543567657471 54.321781158447266
      vertex 59.329109191894531 -3.0553543567657471 54.271781921386719
      vertex 59.974941253662109 -2.0970211029052734 54.316875457763672
    endloop
  endfacet
  facet normal 0.82926661583289807 -0.55885316901923865 -0.0001238636640679046
    outer loop
      vertex 59.329109191894531 -3.0553543567657471 54.346778869628906
      vertex 59.974941253662109 -2.0970211029052734 54.341873168945312
      vertex 60.620777130126953 -1.1386877298355103 54.361968994140625
    endloop
  endfacet
  facet normal 0.82926541847525204 -0.55885495946718144 0
    outer loop
      vertex 59.974941253662109 -2.0970211029052734 54.316875457763672
      vertex 60.620777130126953 -1.1386877298355103 54.361968994140625
      vertex 59.974941253662109 -2.0970211029052734 54.341873168945312
    endloop
  endfacet
  facet normal 0.82926541847525204 -0.55885495946718144 -0
    outer loop
      vertex 60.620777130126953 -1.1386877298355103 54.161968231201172
      vertex 60.620777130126953 -1.1386877298355103 54.361968994140625
      vertex 59.974941253662109 -2.0970211029052734 54.316875457763672
    endloop
  endfacet
  facet normal 0.8292661833664251 -0.55885382447012255 -0
    outer loop
      vertex 59.329109191894531 -3.0553543567657471 54.321781158447266
      vertex 59.329109191894531 -3.0553543567657471 54.346778869628906
      vertex 58.037441253662109 -4.9720211029052734 54.331592559814453
    endloop
  endfacet
  facet normal 0.82926642759115832 -0.55885346207230235 0
    outer loop
      vertex 50.287441253662109 -16.472021102905273 54.440460205078125
      vertex 58.037441253662109 -4.9720211029052734 54.281589508056641
      vertex 58.037441253662109 -4.9720211029052734 54.331592559814453
    endloop
  endfacet
  facet normal 0.82926628666740798 -0.55885367023224009 -3.2631314939714078e-05
    outer loop
      vertex 60.620777130126953 -1.1386877298355103 54.361968994140625
      vertex 50.287441253662109 -16.472021102905273 54.440460205078125
      vertex 59.329109191894531 -3.0553543567657471 54.346778869628906
    endloop
  endfacet
  facet normal 0.82926629425989773 -0.55885365909702822 -3.0303784096851193e-05
    outer loop
      vertex 58.037441253662109 -4.9720211029052734 54.331592559814453
      vertex 59.329109191894531 -3.0553543567657471 54.346778869628906
      vertex 50.287441253662109 -16.472021102905273 54.440460205078125
    endloop
  endfacet
  facet normal 0.82926642759115821 -0.55885346207230224 0
    outer loop
      vertex 50.287441253662109 -16.472021102905273 54.440460205078125
      vertex 50.287441253662109 -16.472021102905273 54.240459442138672
      vertex 58.037441253662109 -4.9720211029052734 54.281589508056641
    endloop
  endfacet
  facet normal 0.82926647020057831 -0.55885339884541574 0
    outer loop
      vertex 39.954109191894531 -31.805355072021484 54.518947601318359
      vertex 39.954109191894531 -31.805355072021484 54.318946838378906
      vertex 50.287441253662109 -16.472021102905273 54.240459442138672
    endloop
  endfacet
  facet normal 0.82926647020057831 -0.55885339884541574 -0
    outer loop
      vertex 39.954109191894531 -31.805355072021484 54.518947601318359
      vertex 50.287441253662109 -16.472021102905273 54.240459442138672
      vertex 50.287441253662109 -16.472021102905273 54.440460205078125
    endloop
  endfacet
  facet normal 0.82926630961744185 -0.55885363648637421 -2.6822093206066856e-05
    outer loop
      vertex 32.204109191894531 -43.305355072021484 54.427814483642578
      vertex 30.912443161010742 -45.222019195556641 54.412628173828125
      vertex 39.954109191894531 -31.805355072021484 54.318946838378906
    endloop
  endfacet
  facet normal 0.82926655041522679 -0.55885327777365834 4.7791928283663727e-05
    outer loop
      vertex 29.620777130126953 -47.138687133789062 54.397438049316406
      vertex 39.954109191894531 -31.805355072021484 54.318946838378906
      vertex 30.912443161010742 -45.222019195556641 54.412628173828125
    endloop
  endfacet
  facet normal 0.82926642759115832 -0.55885346207230235 0
    outer loop
      vertex 39.954109191894531 -31.805355072021484 54.318946838378906
      vertex 32.204109191894531 -43.305355072021484 54.477817535400391
      vertex 32.204109191894531 -43.305355072021484 54.427814483642578
    endloop
  endfacet
  facet normal 0.82926621142599299 -0.55885378283338127 0
    outer loop
      vertex 30.912443161010742 -45.222019195556641 54.437625885009766
      vertex 30.912443161010742 -45.222019195556641 54.412628173828125
      vertex 32.204109191894531 -43.305355072021484 54.427814483642578
    endloop
  endfacet
  facet normal 0.82926642759115821 -0.55885346207230224 -0
    outer loop
      vertex 39.954109191894531 -31.805355072021484 54.518947601318359
      vertex 32.204109191894531 -43.305355072021484 54.477817535400391
      vertex 39.954109191894531 -31.805355072021484 54.318946838378906
    endloop
  endfacet
  facet normal 0.82926659387204671 -0.55885321533283994 0
    outer loop
      vertex 30.266609191894531 -46.180355072021484 54.442531585693359
      vertex 29.620777130126953 -47.138687133789062 54.397438049316406
      vertex 30.266609191894531 -46.180355072021484 54.417533874511719
    endloop
  endfacet
  facet normal 0.82926680751630533 -0.55885289787877424 -2.2004805328138778e-05
    outer loop
      vertex 30.912443161010742 -45.222019195556641 54.412628173828125
      vertex 30.266609191894531 -46.180355072021484 54.417533874511719
      vertex 29.620777130126953 -47.138687133789062 54.397438049316406
    endloop
  endfacet
  facet normal 0.82926659387204671 -0.55885321533283994 0
    outer loop
      vertex 30.266609191894531 -46.180355072021484 54.442531585693359
      vertex 30.266609191894531 -46.180355072021484 54.542533874511719
      vertex 29.620777130126953 -47.138687133789062 54.397438049316406
    endloop
  endfacet
  facet normal 0.82926685991973359 -0.55885282055194518 -0
    outer loop
      vertex 30.266609191894531 -46.180355072021484 54.442531585693359
      vertex 30.912443161010742 -45.222019195556641 54.437625885009766
      vertex 30.912443161010742 -45.222019195556641 54.487628936767578
    endloop
  endfacet
  facet normal 0.82926642759115821 -0.55885346207230224 0
    outer loop
      vertex 32.204109191894531 -43.305355072021484 54.477817535400391
      vertex 39.954109191894531 -31.805355072021484 54.518947601318359
      vertex 32.204109191894531 -43.305355072021484 54.527816772460938
    endloop
  endfacet
  facet normal 0.82926621142599299 -0.55885378283338127 0
    outer loop
      vertex 30.912443161010742 -45.222019195556641 54.537628173828125
      vertex 32.204109191894531 -43.305355072021484 54.527816772460938
      vertex 30.912443161010742 -45.222019195556641 54.562625885009766
    endloop
  endfacet
  facet normal 0.8292664368795718 -0.55885344764583444 2.682207637012429e-05
    outer loop
      vertex 39.954109191894531 -31.805355072021484 54.518947601318359
      vertex 30.912443161010742 -45.222019195556641 54.562625885009766
      vertex 32.204109191894531 -43.305355072021484 54.527816772460938
    endloop
  endfacet
  facet normal 0.82926685991973359 -0.55885282055194518 -0
    outer loop
      vertex 30.912443161010742 -45.222019195556641 54.537628173828125
      vertex 30.266609191894531 -46.180355072021484 54.542533874511719
      vertex 30.912443161010742 -45.222019195556641 54.487628936767578
    endloop
  endfacet
  facet normal 0.82926691192154012 -0.55885274295462029 2.2004773725030549e-05
    outer loop
      vertex 30.912443161010742 -45.222019195556641 54.562625885009766
      vertex 29.620777130126953 -47.138687133789062 54.597438812255859
      vertex 30.266609191894531 -46.180355072021484 54.567531585693359
    endloop
  endfacet
  facet normal 0.82926659387204671 -0.55885321533283994 0
    outer loop
      vertex 30.266609191894531 -46.180355072021484 54.542533874511719
      vertex 30.266609191894531 -46.180355072021484 54.567531585693359
      vertex 29.620777130126953 -47.138687133789062 54.597438812255859
    endloop
  endfacet
  facet normal 0.82926659387204682 -0.55885321533283994 0
    outer loop
      vertex 29.620777130126953 -47.138687133789062 54.597438812255859
      vertex 29.620777130126953 -47.138687133789062 54.397438049316406
      vertex 30.266609191894531 -46.180355072021484 54.542533874511719
    endloop
  endfacet
  facet normal 0.8292663236580039 -0.55885361425213009 -4.7791943210527813e-05
    outer loop
      vertex 39.954109191894531 -31.805355072021484 54.518947601318359
      vertex 29.620777130126953 -47.138687133789062 54.597438812255859
      vertex 30.912443161010742 -45.222019195556641 54.562625885009766
    endloop
  endfacet
  facet normal 0.82926685991973359 -0.55885282055194518 0
    outer loop
      vertex 30.266609191894531 -46.180355072021484 54.542533874511719
      vertex 30.266609191894531 -46.180355072021484 54.442531585693359
      vertex 30.912443161010742 -45.222019195556641 54.487628936767578
    endloop
  endfacet
  facet normal 0.56738825236130097 0.82345040596406816 0
    outer loop
      vertex -2.6468205451965332 42.455062866210938 54.869724273681641
      vertex -2.6468205451965332 42.455062866210938 54.8447265625
      vertex -3.6672656536102295 43.158187866210938 54.853317260742188
    endloop
  endfacet
  facet normal 0.56738825236130097 0.82345040596406816 -0
    outer loop
      vertex -2.6468205451965332 42.455062866210938 54.869724273681641
      vertex -3.6672656536102295 43.158187866210938 54.853317260742188
      vertex -3.6672656536102295 43.158187866210938 54.878318786621094
    endloop
  endfacet
  facet normal 0.56738822988909654 0.82345042144826064 0
    outer loop
      vertex -0.60593020915985107 41.048812866210938 54.827537536621094
      vertex -0.60593020915985107 41.048812866210938 54.777538299560547
      vertex -2.6468205451965332 42.455062866210938 54.794723510742188
    endloop
  endfacet
  facet normal 0.56738822988909654 0.82345042144826053 0
    outer loop
      vertex -0.60593020915985107 41.048812866210938 54.827537536621094
      vertex -2.6468205451965332 42.455062866210938 54.794723510742188
      vertex -2.6468205451965332 42.455062866210938 54.8447265625
    endloop
  endfacet
  facet normal 0.56738822988909654 0.82345042144826064 0
    outer loop
      vertex -0.60593020915985107 41.048812866210938 54.777538299560547
      vertex -0.60593020915985107 41.048812866210938 54.7275390625
      vertex -2.6468205451965332 42.455062866210938 54.744724273681641
    endloop
  endfacet
  facet normal 0.56738822988909654 0.82345042144826064 0
    outer loop
      vertex -0.60593020915985107 41.048812866210938 54.777538299560547
      vertex -2.6468205451965332 42.455062866210938 54.744724273681641
      vertex -2.6468205451965332 42.455062866210938 54.794723510742188
    endloop
  endfacet
  facet normal 0.56738825236130097 0.82345040596406816 0
    outer loop
      vertex -2.6468205451965332 42.455062866210938 54.744724273681641
      vertex -2.6468205451965332 42.455062866210938 54.7197265625
      vertex -3.6672656536102295 43.158187866210938 54.728317260742188
    endloop
  endfacet
  facet normal 0.56738825236130097 0.82345040596406816 -0
    outer loop
      vertex -2.6468205451965332 42.455062866210938 54.744724273681641
      vertex -3.6672656536102295 43.158187866210938 54.728317260742188
      vertex -3.6672656536102295 43.158187866210938 54.753318786621094
    endloop
  endfacet
  facet normal 0.56738906136156708 0.82344984853191883 0
    outer loop
      vertex 59.600330352783203 -0.43556267023086548 54.345561981201172
      vertex 59.600330352783203 -0.43556267023086548 54.320560455322266
      vertex 58.579887390136719 0.26756232976913452 54.329154968261719
    endloop
  endfacet
  facet normal 0.56738906136156708 0.82344984853191883 -0
    outer loop
      vertex 59.600330352783203 -0.43556267023086548 54.345561981201172
      vertex 58.579887390136719 0.26756232976913452 54.329154968261719
      vertex 58.579887390136719 0.26756232976913452 54.354152679443359
    endloop
  endfacet
  facet normal 0.56738832594317967 0.82345035526338572 0
    outer loop
      vertex 58.579887390136719 0.26756232976913452 54.329154968261719
      vertex 58.579887390136719 0.26756232976913452 54.279155731201172
      vertex 56.538997650146484 1.6738122701644897 54.296340942382812
    endloop
  endfacet
  facet normal 0.56738832594317967 0.82345035526338572 -0
    outer loop
      vertex 58.579887390136719 0.26756232976913452 54.329154968261719
      vertex 56.538997650146484 1.6738122701644897 54.296340942382812
      vertex 56.538997650146484 1.6738122701644897 54.346340179443359
    endloop
  endfacet
  facet normal 0.56738832594317967 0.82345035526338572 0
    outer loop
      vertex 58.579887390136719 0.26756232976913452 54.279155731201172
      vertex 58.579887390136719 0.26756232976913452 54.229152679443359
      vertex 56.538997650146484 1.6738122701644897 54.246341705322266
    endloop
  endfacet
  facet normal 0.56738832594317967 0.82345035526338572 -0
    outer loop
      vertex 58.579887390136719 0.26756232976913452 54.279155731201172
      vertex 56.538997650146484 1.6738122701644897 54.246341705322266
      vertex 56.538997650146484 1.6738122701644897 54.296340942382812
    endloop
  endfacet
  facet normal 0.56738906136156708 0.82344984853191883 0
    outer loop
      vertex 59.600330352783203 -0.43556267023086548 54.220561981201172
      vertex 59.600330352783203 -0.43556267023086548 54.195560455322266
      vertex 58.579887390136719 0.26756232976913452 54.204154968261719
    endloop
  endfacet
  facet normal 0.56738906136156708 0.82344984853191883 -0
    outer loop
      vertex 59.600330352783203 -0.43556267023086548 54.220561981201172
      vertex 58.579887390136719 0.26756232976913452 54.204154968261719
      vertex 58.579887390136719 0.26756232976913452 54.229152679443359
    endloop
  endfacet
  facet normal 0.56738825236130097 0.82345040596406816 0
    outer loop
      vertex -3.6672656536102295 43.158187866210938 54.753318786621094
      vertex -3.6672656536102295 43.158187866210938 54.728317260742188
      vertex -4.6877107620239258 43.861312866210938 54.711910247802734
    endloop
  endfacet
  facet normal 0.56738825236130097 0.82345040596406816 -0
    outer loop
      vertex -2.6468205451965332 42.455062866210938 54.7197265625
      vertex -4.6877107620239258 43.861312866210938 54.711910247802734
      vertex -3.6672656536102295 43.158187866210938 54.728317260742188
    endloop
  endfacet
  facet normal 0.56738825236130097 0.82345040596406816 0
    outer loop
      vertex -2.6468205451965332 42.455062866210938 54.7197265625
      vertex 11.639410972595215 32.611312866210938 54.574424743652344
      vertex -4.6877107620239258 43.861312866210938 54.711910247802734
    endloop
  endfacet
  facet normal 0.56738825236130097 0.82345040596406816 0
    outer loop
      vertex -4.6877107620239258 43.861312866210938 54.911911010742188
      vertex -3.6672656536102295 43.158187866210938 54.853317260742188
      vertex -3.6672656536102295 43.158187866210938 54.753318786621094
    endloop
  endfacet
  facet normal 0.56738825236130097 0.82345040596406816 -0
    outer loop
      vertex -4.6877107620239258 43.861312866210938 54.911911010742188
      vertex -3.6672656536102295 43.158187866210938 54.753318786621094
      vertex -4.6877107620239258 43.861312866210938 54.711910247802734
    endloop
  endfacet
  facet normal 0.56738825610666854 0.82345040338336928 -0
    outer loop
      vertex -0.60593020915985107 41.048812866210938 54.777538299560547
      vertex 11.639410972595215 32.611312866210938 54.574424743652344
      vertex -0.60593020915985107 41.048812866210938 54.7275390625
    endloop
  endfacet
  facet normal 0.56738822988909654 0.82345042144826064 0
    outer loop
      vertex -0.60593020915985107 41.048812866210938 54.7275390625
      vertex -2.6468205451965332 42.455062866210938 54.7197265625
      vertex -2.6468205451965332 42.455062866210938 54.744724273681641
    endloop
  endfacet
  facet normal 0.56738822988909643 0.82345042144826042 0
    outer loop
      vertex 11.639410972595215 32.611312866210938 54.574424743652344
      vertex 11.639410972595215 32.611312866210938 54.774425506591797
      vertex 27.966533660888672 21.361312866210938 54.636940002441406
    endloop
  endfacet
  facet normal 0.56738822988909643 0.82345042144826042 0
    outer loop
      vertex 11.639410972595215 32.611312866210938 54.574424743652344
      vertex 27.966533660888672 21.361312866210938 54.636940002441406
      vertex 27.966533660888672 21.361312866210938 54.436939239501953
    endloop
  endfacet
  facet normal 0.56738823603257793 0.82345041721176815 -2.367454633810064e-06
    outer loop
      vertex 11.639410972595215 32.611312866210938 54.574424743652344
      vertex -2.6468205451965332 42.455062866210938 54.7197265625
      vertex -0.60593020915985107 41.048812866210938 54.7275390625
    endloop
  endfacet
  facet normal 0.56738825236130097 0.82345040596406816 0
    outer loop
      vertex -2.6468205451965332 42.455062866210938 54.794723510742188
      vertex -2.6468205451965332 42.455062866210938 54.744724273681641
      vertex -3.6672656536102295 43.158187866210938 54.753318786621094
    endloop
  endfacet
  facet normal 0.56738825236130097 0.82345040596406816 -0
    outer loop
      vertex -2.6468205451965332 42.455062866210938 54.869724273681641
      vertex -3.6672656536102295 43.158187866210938 54.878318786621094
      vertex -4.6877107620239258 43.861312866210938 54.911911010742188
    endloop
  endfacet
  facet normal 0.56738825236130097 0.82345040596406816 0
    outer loop
      vertex -3.6672656536102295 43.158187866210938 54.853317260742188
      vertex -4.6877107620239258 43.861312866210938 54.911911010742188
      vertex -3.6672656536102295 43.158187866210938 54.878318786621094
    endloop
  endfacet
  facet normal 0.56738825236130097 0.82345040596406816 0
    outer loop
      vertex -2.6468205451965332 42.455062866210938 54.8447265625
      vertex -2.6468205451965332 42.455062866210938 54.794723510742188
      vertex -3.6672656536102295 43.158187866210938 54.853317260742188
    endloop
  endfacet
  facet normal 0.56738825236130097 0.82345040596406816 -0
    outer loop
      vertex -2.6468205451965332 42.455062866210938 54.794723510742188
      vertex -3.6672656536102295 43.158187866210938 54.753318786621094
      vertex -3.6672656536102295 43.158187866210938 54.853317260742188
    endloop
  endfacet
  facet normal 0.56738826306712942 0.82345039858394786 2.3672289780079446e-06
    outer loop
      vertex 11.639410972595215 32.611312866210938 54.774425506591797
      vertex -0.60593020915985107 41.048812866210938 54.827537536621094
      vertex -2.6468205451965332 42.455062866210938 54.869724273681641
    endloop
  endfacet
  facet normal 0.56738822988909654 0.82345042144826064 0
    outer loop
      vertex -2.6468205451965332 42.455062866210938 54.8447265625
      vertex -2.6468205451965332 42.455062866210938 54.869724273681641
      vertex -0.60593020915985107 41.048812866210938 54.827537536621094
    endloop
  endfacet
  facet normal 0.56738825610666854 0.82345040338336928 -0
    outer loop
      vertex -0.60593020915985107 41.048812866210938 54.777538299560547
      vertex -0.60593020915985107 41.048812866210938 54.827537536621094
      vertex 11.639410972595215 32.611312866210938 54.774425506591797
    endloop
  endfacet
  facet normal 0.56738825236130097 0.82345040596406816 0
    outer loop
      vertex -4.6877107620239258 43.861312866210938 54.911911010742188
      vertex 11.639410972595215 32.611312866210938 54.774425506591797
      vertex -2.6468205451965332 42.455062866210938 54.869724273681641
    endloop
  endfacet
  facet normal 0.56738825610666854 0.82345040338336928 0
    outer loop
      vertex 11.639410972595215 32.611312866210938 54.774425506591797
      vertex 11.639410972595215 32.611312866210938 54.574424743652344
      vertex -0.60593020915985107 41.048812866210938 54.777538299560547
    endloop
  endfacet
  facet normal 0.56738817423167442 0.82345045972720166 -1.0821616484810683e-05
    outer loop
      vertex 56.538997650146484 1.6738122701644897 54.246341705322266
      vertex 58.579887390136719 0.26756232976913452 54.204154968261719
      vertex 44.293655395507812 10.111311912536621 54.299453735351562
    endloop
  endfacet
  facet normal 0.56738815866755798 0.82345047039914365 -1.4257175126687849e-05
    outer loop
      vertex 60.620777130126953 -1.1386877298355103 54.161968231201172
      vertex 44.293655395507812 10.111311912536621 54.299453735351562
      vertex 58.579887390136719 0.26756232976913452 54.204154968261719
    endloop
  endfacet
  facet normal 0.56738820609140916 0.82345043784575911 0
    outer loop
      vertex 44.293655395507812 10.111311912536621 54.299453735351562
      vertex 56.538997650146484 1.6738122701644897 54.296340942382812
      vertex 56.538997650146484 1.6738122701644897 54.246341705322266
    endloop
  endfacet
  facet normal 0.56738832594317967 0.82345035526338572 0
    outer loop
      vertex 58.579887390136719 0.26756232976913452 54.229152679443359
      vertex 58.579887390136719 0.26756232976913452 54.204154968261719
      vertex 56.538997650146484 1.6738122701644897 54.246341705322266
    endloop
  endfacet
  facet normal 0.56738820609140916 0.82345043784575911 0
    outer loop
      vertex 44.293655395507812 10.111311912536621 54.499454498291016
      vertex 56.538997650146484 1.6738122701644897 54.296340942382812
      vertex 44.293655395507812 10.111311912536621 54.299453735351562
    endloop
  endfacet
  facet normal 0.56738765575398975 0.8234508170485908 -0
    outer loop
      vertex 59.600330352783203 -0.43556267023086548 54.220561981201172
      vertex 60.620777130126953 -1.1386877298355103 54.161968231201172
      vertex 59.600330352783203 -0.43556267023086548 54.195560455322266
    endloop
  endfacet
  facet normal 0.56738954259612395 0.82344951259430776 8.4621264147999062e-05
    outer loop
      vertex 58.579887390136719 0.26756232976913452 54.204154968261719
      vertex 59.600330352783203 -0.43556267023086548 54.195560455322266
      vertex 60.620777130126953 -1.1386877298355103 54.161968231201172
    endloop
  endfacet
  facet normal 0.56738765575398975 0.8234508170485908 -0
    outer loop
      vertex 60.620777130126953 -1.1386877298355103 54.161968231201172
      vertex 59.600330352783203 -0.43556267023086548 54.220561981201172
      vertex 59.600330352783203 -0.43556267023086548 54.320560455322266
    endloop
  endfacet
  facet normal 0.56738765575398975 0.8234508170485908 0
    outer loop
      vertex 60.620777130126953 -1.1386877298355103 54.161968231201172
      vertex 59.600330352783203 -0.43556267023086548 54.320560455322266
      vertex 60.620777130126953 -1.1386877298355103 54.361968994140625
    endloop
  endfacet
  facet normal 0.56738906136156708 0.82344984853191883 -0
    outer loop
      vertex 59.600330352783203 -0.43556267023086548 54.220561981201172
      vertex 58.579887390136719 0.26756232976913452 54.229152679443359
      vertex 58.579887390136719 0.26756232976913452 54.279155731201172
    endloop
  endfacet
  facet normal 0.56738820609140916 0.82345043784575911 0
    outer loop
      vertex 56.538997650146484 1.6738122701644897 54.296340942382812
      vertex 44.293655395507812 10.111311912536621 54.499454498291016
      vertex 56.538997650146484 1.6738122701644897 54.346340179443359
    endloop
  endfacet
  facet normal 0.56738828497520444 0.82345038349186295 -0
    outer loop
      vertex 44.293655395507812 10.111311912536621 54.299453735351562
      vertex 27.966533660888672 21.361312866210938 54.436939239501953
      vertex 27.966533660888672 21.361312866210938 54.636940002441406
    endloop
  endfacet
  facet normal 0.56738828497520444 0.82345038349186295 0
    outer loop
      vertex 44.293655395507812 10.111311912536621 54.299453735351562
      vertex 27.966533660888672 21.361312866210938 54.636940002441406
      vertex 44.293655395507812 10.111311912536621 54.499454498291016
    endloop
  endfacet
  facet normal 0.56738829781818823 0.82345037457144266 1.0822650933090226e-05
    outer loop
      vertex 44.293655395507812 10.111311912536621 54.499454498291016
      vertex 58.579887390136719 0.26756232976913452 54.354152679443359
      vertex 56.538997650146484 1.6738122701644897 54.346340179443359
    endloop
  endfacet
  facet normal 0.56738906136156708 0.82344984853191883 -0
    outer loop
      vertex 58.579887390136719 0.26756232976913452 54.279155731201172
      vertex 58.579887390136719 0.26756232976913452 54.329154968261719
      vertex 59.600330352783203 -0.43556267023086548 54.320560455322266
    endloop
  endfacet
  facet normal 0.56738857627923589 0.82345017842434709 -8.4621115098635052e-05
    outer loop
      vertex 60.620777130126953 -1.1386877298355103 54.361968994140625
      vertex 59.600330352783203 -0.43556267023086548 54.345561981201172
      vertex 58.579887390136719 0.26756232976913452 54.354152679443359
    endloop
  endfacet
  facet normal 0.56738765575398975 0.8234508170485908 -0
    outer loop
      vertex 59.600330352783203 -0.43556267023086548 54.320560455322266
      vertex 59.600330352783203 -0.43556267023086548 54.345561981201172
      vertex 60.620777130126953 -1.1386877298355103 54.361968994140625
    endloop
  endfacet
  facet normal 0.56738832147619234 0.8234503582178937 1.4256633939243541e-05
    outer loop
      vertex 44.293655395507812 10.111311912536621 54.499454498291016
      vertex 60.620777130126953 -1.1386877298355103 54.361968994140625
      vertex 58.579887390136719 0.26756232976913452 54.354152679443359
    endloop
  endfacet
  facet normal 0.56738906136156708 0.82344984853191883 0
    outer loop
      vertex 59.600330352783203 -0.43556267023086548 54.320560455322266
      vertex 59.600330352783203 -0.43556267023086548 54.220561981201172
      vertex 58.579887390136719 0.26756232976913452 54.279155731201172
    endloop
  endfacet
  facet normal 0.56738832594317967 0.82345035526338572 0
    outer loop
      vertex 56.538997650146484 1.6738122701644897 54.346340179443359
      vertex 58.579887390136719 0.26756232976913452 54.354152679443359
      vertex 58.579887390136719 0.26756232976913452 54.329154968261719
    endloop
  endfacet
  facet normal -0.81495480252559116 0.5795245204825028 0
    outer loop
      vertex -35.354377746582031 0.73631232976913452 54.629066467285156
      vertex -35.354377746582031 0.73631232976913452 54.60406494140625
      vertex -36.021045684814453 -0.20118767023086548 54.598461151123047
    endloop
  endfacet
  facet normal -0.81495480252559116 0.5795245204825028 -0
    outer loop
      vertex -35.354377746582031 0.73631232976913452 54.629066467285156
      vertex -36.021045684814453 -0.20118767023086548 54.598461151123047
      vertex -36.021045684814453 -0.20118767023086548 54.623458862304688
    endloop
  endfacet
  facet normal -0.81495559429105069 0.57952340706283823 0
    outer loop
      vertex -34.021045684814453 2.6113123893737793 54.615276336669922
      vertex -34.021045684814453 2.6113123893737793 54.565277099609375
      vertex -35.354377746582031 0.73631232976913452 54.554065704345703
    endloop
  endfacet
  facet normal -0.81495559429105069 0.57952340706283823 -0
    outer loop
      vertex -34.021045684814453 2.6113123893737793 54.615276336669922
      vertex -35.354377746582031 0.73631232976913452 54.554065704345703
      vertex -35.354377746582031 0.73631232976913452 54.60406494140625
    endloop
  endfacet
  facet normal -0.81495559429105069 0.57952340706283823 0
    outer loop
      vertex -34.021045684814453 2.6113123893737793 54.565277099609375
      vertex -34.021045684814453 2.6113123893737793 54.515277862548828
      vertex -35.354377746582031 0.73631232976913452 54.504066467285156
    endloop
  endfacet
  facet normal -0.81495559429105069 0.57952340706283823 -0
    outer loop
      vertex -34.021045684814453 2.6113123893737793 54.565277099609375
      vertex -35.354377746582031 0.73631232976913452 54.504066467285156
      vertex -35.354377746582031 0.73631232976913452 54.554065704345703
    endloop
  endfacet
  facet normal -0.81495480252559116 0.5795245204825028 0
    outer loop
      vertex -35.354377746582031 0.73631232976913452 54.504066467285156
      vertex -35.354377746582031 0.73631232976913452 54.47906494140625
      vertex -36.021045684814453 -0.20118767023086548 54.473461151123047
    endloop
  endfacet
  facet normal -0.81495480252559116 0.5795245204825028 -0
    outer loop
      vertex -35.354377746582031 0.73631232976913452 54.504066467285156
      vertex -36.021045684814453 -0.20118767023086548 54.473461151123047
      vertex -36.021045684814453 -0.20118767023086548 54.498458862304688
    endloop
  endfacet
  facet normal -0.81495538982415106 0.57952369459459196 0
    outer loop
      vertex -5.354377269744873 42.923812866210938 54.881305694580078
      vertex -5.354377269744873 42.923812866210938 54.856304168701172
      vertex -6.0210437774658203 41.986312866210938 54.850700378417969
    endloop
  endfacet
  facet normal -0.81495538982415106 0.57952369459459196 -0
    outer loop
      vertex -5.354377269744873 42.923812866210938 54.881305694580078
      vertex -6.0210437774658203 41.986312866210938 54.850700378417969
      vertex -6.0210437774658203 41.986312866210938 54.875698089599609
    endloop
  endfacet
  facet normal -0.81495529194105709 0.5795238322427011 0
    outer loop
      vertex -6.0210437774658203 41.986312866210938 54.850700378417969
      vertex -6.0210437774658203 41.986312866210938 54.800701141357422
      vertex -7.354377269744873 40.111312866210938 54.78948974609375
    endloop
  endfacet
  facet normal -0.81495529194105709 0.5795238322427011 -0
    outer loop
      vertex -6.0210437774658203 41.986312866210938 54.850700378417969
      vertex -7.354377269744873 40.111312866210938 54.78948974609375
      vertex -7.354377269744873 40.111312866210938 54.839488983154297
    endloop
  endfacet
  facet normal -0.81495529194105709 0.5795238322427011 0
    outer loop
      vertex -6.0210437774658203 41.986312866210938 54.800701141357422
      vertex -6.0210437774658203 41.986312866210938 54.750698089599609
      vertex -7.354377269744873 40.111312866210938 54.739490509033203
    endloop
  endfacet
  facet normal -0.81495529194105709 0.5795238322427011 -0
    outer loop
      vertex -6.0210437774658203 41.986312866210938 54.800701141357422
      vertex -7.354377269744873 40.111312866210938 54.739490509033203
      vertex -7.354377269744873 40.111312866210938 54.78948974609375
    endloop
  endfacet
  facet normal -0.81495538982415106 0.57952369459459196 0
    outer loop
      vertex -5.354377269744873 42.923812866210938 54.756305694580078
      vertex -5.354377269744873 42.923812866210938 54.731304168701172
      vertex -6.0210437774658203 41.986312866210938 54.725700378417969
    endloop
  endfacet
  facet normal -0.81495538982415106 0.57952369459459196 -0
    outer loop
      vertex -5.354377269744873 42.923812866210938 54.756305694580078
      vertex -6.0210437774658203 41.986312866210938 54.725700378417969
      vertex -6.0210437774658203 41.986312866210938 54.750698089599609
    endloop
  endfacet
  facet normal -0.81495638605647747 0.57952229363999952 0
    outer loop
      vertex -36.021045684814453 -0.20118767023086548 54.498458862304688
      vertex -36.021045684814453 -0.20118767023086548 54.473461151123047
      vertex -36.687709808349609 -1.1386877298355103 54.442855834960938
    endloop
  endfacet
  facet normal -0.81495444115521243 0.57952501502033382 -0.00012572620071939352
    outer loop
      vertex -35.354377746582031 0.73631232976913452 54.47906494140625
      vertex -36.687709808349609 -1.1386877298355103 54.442855834960938
      vertex -36.021045684814453 -0.20118767023086548 54.473461151123047
    endloop
  endfacet
  facet normal -0.81495521709747376 0.57952393602123953 -4.1280259866513241e-05
    outer loop
      vertex -35.354377746582031 0.73631232976913452 54.47906494140625
      vertex -26.02104377746582 13.861311912536621 54.532539367675781
      vertex -36.687709808349609 -1.1386877298355103 54.442855834960938
    endloop
  endfacet
  facet normal -0.81495638605647747 0.57952229363999952 0
    outer loop
      vertex -36.021045684814453 -0.20118767023086548 54.598461151123047
      vertex -36.021045684814453 -0.20118767023086548 54.498458862304688
      vertex -36.687709808349609 -1.1386877298355103 54.442855834960938
    endloop
  endfacet
  facet normal -0.81495559429105069 0.57952340706283823 0
    outer loop
      vertex -35.354377746582031 0.73631232976913452 54.504066467285156
      vertex -34.021045684814453 2.6113123893737793 54.515277862548828
      vertex -35.354377746582031 0.73631232976913452 54.47906494140625
    endloop
  endfacet
  facet normal -0.81495521710826357 0.57952393600645891 -4.1274748798887565e-05
    outer loop
      vertex -26.02104377746582 13.861311912536621 54.532539367675781
      vertex -35.354377746582031 0.73631232976913452 54.47906494140625
      vertex -34.021045684814453 2.6113123893737793 54.515277862548828
    endloop
  endfacet
  facet normal -0.81495524771239669 0.57952389443924246 0
    outer loop
      vertex -34.021045684814453 2.6113123893737793 54.565277099609375
      vertex -26.02104377746582 13.861311912536621 54.532539367675781
      vertex -34.021045684814453 2.6113123893737793 54.515277862548828
    endloop
  endfacet
  facet normal -0.81495480252559116 0.5795245204825028 0
    outer loop
      vertex -36.021045684814453 -0.20118767023086548 54.498458862304688
      vertex -35.354377746582031 0.73631232976913452 54.554065704345703
      vertex -35.354377746582031 0.73631232976913452 54.504066467285156
    endloop
  endfacet
  facet normal -0.81495480252559116 0.5795245204825028 0
    outer loop
      vertex -36.021045684814453 -0.20118767023086548 54.598461151123047
      vertex -35.354377746582031 0.73631232976913452 54.554065704345703
      vertex -36.021045684814453 -0.20118767023086548 54.498458862304688
    endloop
  endfacet
  facet normal -0.81495480252559116 0.5795245204825028 0
    outer loop
      vertex -35.354377746582031 0.73631232976913452 54.60406494140625
      vertex -35.354377746582031 0.73631232976913452 54.554065704345703
      vertex -36.021045684814453 -0.20118767023086548 54.598461151123047
    endloop
  endfacet
  facet normal -0.81495515120329343 0.57952401652126173 0.00012570712646246197
    outer loop
      vertex -35.354377746582031 0.73631232976913452 54.629066467285156
      vertex -36.021045684814453 -0.20118767023086548 54.623458862304688
      vertex -36.687709808349609 -1.1386877298355103 54.642856597900391
    endloop
  endfacet
  facet normal -0.81495638605647747 0.57952229363999952 -0
    outer loop
      vertex -36.021045684814453 -0.20118767023086548 54.598461151123047
      vertex -36.687709808349609 -1.1386877298355103 54.642856597900391
      vertex -36.021045684814453 -0.20118767023086548 54.623458862304688
    endloop
  endfacet
  facet normal -0.81495638605647747 0.57952229363999952 -0
    outer loop
      vertex -36.687709808349609 -1.1386877298355103 54.442855834960938
      vertex -36.687709808349609 -1.1386877298355103 54.642856597900391
      vertex -36.021045684814453 -0.20118767023086548 54.598461151123047
    endloop
  endfacet
  facet normal -0.81495559429105069 0.57952340706283823 -0
    outer loop
      vertex -35.354377746582031 0.73631232976913452 54.60406494140625
      vertex -35.354377746582031 0.73631232976913452 54.629066467285156
      vertex -34.021045684814453 2.6113123893737793 54.615276336669922
    endloop
  endfacet
  facet normal -0.81495524771239669 0.57952389443924246 0
    outer loop
      vertex -26.02104377746582 13.861311912536621 54.732540130615234
      vertex -34.021045684814453 2.6113123893737793 54.565277099609375
      vertex -34.021045684814453 2.6113123893737793 54.615276336669922
    endloop
  endfacet
  facet normal -0.8149554502191303 0.57952360819412208 4.1277120252532708e-05
    outer loop
      vertex -36.687709808349609 -1.1386877298355103 54.642856597900391
      vertex -26.02104377746582 13.861311912536621 54.732540130615234
      vertex -35.354377746582031 0.73631232976913452 54.629066467285156
    endloop
  endfacet
  facet normal -0.8149554502191303 0.57952360819412208 4.1277120252532708e-05
    outer loop
      vertex -34.021045684814453 2.6113123893737793 54.615276336669922
      vertex -35.354377746582031 0.73631232976913452 54.629066467285156
      vertex -26.02104377746582 13.861311912536621 54.732540130615234
    endloop
  endfacet
  facet normal -0.81495524771239658 0.57952389443924246 0
    outer loop
      vertex -26.02104377746582 13.861311912536621 54.732540130615234
      vertex -26.02104377746582 13.861311912536621 54.532539367675781
      vertex -34.021045684814453 2.6113123893737793 54.565277099609375
    endloop
  endfacet
  facet normal -0.81495535828404086 0.57952373894788001 0
    outer loop
      vertex -26.02104377746582 13.861311912536621 54.732540130615234
      vertex -15.354377746582031 28.861312866210938 54.822223663330078
      vertex -15.354377746582031 28.861312866210938 54.622226715087891
    endloop
  endfacet
  facet normal -0.81495535828404086 0.57952373894788001 0
    outer loop
      vertex -26.02104377746582 13.861311912536621 54.732540130615234
      vertex -15.354377746582031 28.861312866210938 54.622226715087891
      vertex -26.02104377746582 13.861311912536621 54.532539367675781
    endloop
  endfacet
  facet normal -0.8149552986884675 0.57952382275089898 -1.9429603726122152e-06
    outer loop
      vertex -7.354377269744873 40.111312866210938 54.739490509033203
      vertex -6.0210437774658203 41.986312866210938 54.725700378417969
      vertex -15.354377746582031 28.861312866210938 54.622226715087891
    endloop
  endfacet
  facet normal -0.81495534927508084 0.57952375149947721 1.1657762959304037e-05
    outer loop
      vertex -4.6877107620239258 43.861312866210938 54.711910247802734
      vertex -15.354377746582031 28.861312866210938 54.622226715087891
      vertex -6.0210437774658203 41.986312866210938 54.725700378417969
    endloop
  endfacet
  facet normal -0.81495530825490603 0.57952380930135305 0
    outer loop
      vertex -15.354377746582031 28.861312866210938 54.622226715087891
      vertex -7.354377269744873 40.111312866210938 54.78948974609375
      vertex -7.354377269744873 40.111312866210938 54.739490509033203
    endloop
  endfacet
  facet normal -0.81495529194105709 0.5795238322427011 0
    outer loop
      vertex -6.0210437774658203 41.986312866210938 54.750698089599609
      vertex -6.0210437774658203 41.986312866210938 54.725700378417969
      vertex -7.354377269744873 40.111312866210938 54.739490509033203
    endloop
  endfacet
  facet normal -0.81495530825490603 0.57952380930135305 0
    outer loop
      vertex -15.354377746582031 28.861312866210938 54.822223663330078
      vertex -7.354377269744873 40.111312866210938 54.78948974609375
      vertex -15.354377746582031 28.861312866210938 54.622226715087891
    endloop
  endfacet
  facet normal -0.81495538982415106 0.57952369459459196 0
    outer loop
      vertex -5.354377269744873 42.923812866210938 54.756305694580078
      vertex -4.6877107620239258 43.861312866210938 54.711910247802734
      vertex -5.354377269744873 42.923812866210938 54.731304168701172
    endloop
  endfacet
  facet normal -0.81495538982415106 0.57952369459459196 0
    outer loop
      vertex -6.0210437774658203 41.986312866210938 54.725700378417969
      vertex -5.354377269744873 42.923812866210938 54.731304168701172
      vertex -4.6877107620239258 43.861312866210938 54.711910247802734
    endloop
  endfacet
  facet normal -0.81495538982415106 0.57952369459459196 -0
    outer loop
      vertex -5.354377269744873 42.923812866210938 54.756305694580078
      vertex -5.354377269744873 42.923812866210938 54.856304168701172
      vertex -4.6877107620239258 43.861312866210938 54.711910247802734
    endloop
  endfacet
  facet normal -0.81495538982415106 0.57952369459459196 -0
    outer loop
      vertex -5.354377269744873 42.923812866210938 54.756305694580078
      vertex -6.0210437774658203 41.986312866210938 54.750698089599609
      vertex -6.0210437774658203 41.986312866210938 54.800701141357422
    endloop
  endfacet
  facet normal -0.81495530825490603 0.57952380930135305 -0
    outer loop
      vertex -7.354377269744873 40.111312866210938 54.78948974609375
      vertex -15.354377746582031 28.861312866210938 54.822223663330078
      vertex -7.354377269744873 40.111312866210938 54.839488983154297
    endloop
  endfacet
  facet normal -0.81495529194105709 0.5795238322427011 -0
    outer loop
      vertex -6.0210437774658203 41.986312866210938 54.850700378417969
      vertex -7.354377269744873 40.111312866210938 54.839488983154297
      vertex -6.0210437774658203 41.986312866210938 54.875698089599609
    endloop
  endfacet
  facet normal -0.81495530966176188 0.57952380731970465 1.9431086409958216e-06
    outer loop
      vertex -15.354377746582031 28.861312866210938 54.822223663330078
      vertex -6.0210437774658203 41.986312866210938 54.875698089599609
      vertex -7.354377269744873 40.111312866210938 54.839488983154297
    endloop
  endfacet
  facet normal -0.81495538982415106 0.57952369459459196 0
    outer loop
      vertex -6.0210437774658203 41.986312866210938 54.850700378417969
      vertex -5.354377269744873 42.923812866210938 54.856304168701172
      vertex -6.0210437774658203 41.986312866210938 54.800701141357422
    endloop
  endfacet
  facet normal -0.81495538982415106 0.57952369459459196 0
    outer loop
      vertex -6.0210437774658203 41.986312866210938 54.875698089599609
      vertex -4.6877107620239258 43.861312866210938 54.911911010742188
      vertex -5.354377269744873 42.923812866210938 54.881305694580078
    endloop
  endfacet
  facet normal -0.81495538982415106 0.57952369459459196 -0
    outer loop
      vertex -5.354377269744873 42.923812866210938 54.856304168701172
      vertex -5.354377269744873 42.923812866210938 54.881305694580078
      vertex -4.6877107620239258 43.861312866210938 54.911911010742188
    endloop
  endfacet
  facet normal -0.81495538982415106 0.57952369459459196 0
    outer loop
      vertex -5.354377269744873 42.923812866210938 54.856304168701172
      vertex -5.354377269744873 42.923812866210938 54.756305694580078
      vertex -6.0210437774658203 41.986312866210938 54.800701141357422
    endloop
  endfacet
  facet normal -0.81495528343831491 0.57952384408243984 -1.1657095008462918e-05
    outer loop
      vertex -15.354377746582031 28.861312866210938 54.822223663330078
      vertex -4.6877107620239258 43.861312866210938 54.911911010742188
      vertex -6.0210437774658203 41.986312866210938 54.875698089599609
    endloop
  endfacet
  facet normal -0.81495538982415106 0.57952369459459196 0
    outer loop
      vertex -5.354377269744873 42.923812866210938 54.856304168701172
      vertex -4.6877107620239258 43.861312866210938 54.911911010742188
      vertex -4.6877107620239258 43.861312866210938 54.711910247802734
    endloop
  endfacet
  facet normal -0.0023186694497843276 -0.0043299986524769369 0.99998793736907265
    outer loop
      vertex -26.02104377746582 13.861311912536621 54.732540130615234
      vertex -36.687709808349609 -1.1386877298355103 54.642856597900391
      vertex -23.426013946533203 -10.338687896728516 54.633769989013672
    endloop
  endfacet
  facet normal 0.00028969807621301823 -0.00056966354950438512 0.99999979577921172
    outer loop
      vertex -23.426013946533203 -10.338687896728516 54.633769989013672
      vertex -10.164316177368164 -19.538686752319336 54.624687194824219
      vertex 27.966533660888672 21.361312866210938 54.636940002441406
    endloop
  endfacet
  facet normal 0.0039448400539169775 -0.0064954352431348091 0.99997112336204541
    outer loop
      vertex -23.426013946533203 -10.338687896728516 54.633769989013672
      vertex 27.966533660888672 21.361312866210938 54.636940002441406
      vertex 11.639410972595215 32.611312866210938 54.774425506591797
    endloop
  endfacet
  facet normal 0.002886345547995339 -0.0080311962087409681 0.99996358378534667
    outer loop
      vertex 11.639410972595215 32.611312866210938 54.774425506591797
      vertex -15.354377746582031 28.861312866210938 54.822223663330078
      vertex -26.02104377746582 13.861311912536621 54.732540130615234
    endloop
  endfacet
  facet normal 0.0028863848487806756 -0.0080314791397101647 0.99996358139950925
    outer loop
      vertex -15.354377746582031 28.861312866210938 54.822223663330078
      vertex 11.639410972595215 32.611312866210938 54.774425506591797
      vertex -4.6877107620239258 43.861312866210938 54.911911010742188
    endloop
  endfacet
  facet normal 0.00087320042890273784 -0.0039877412486326713 0.99999166768565861
    outer loop
      vertex 11.639410972595215 32.611312866210938 54.774425506591797
      vertex -26.02104377746582 13.861311912536621 54.732540130615234
      vertex -23.426013946533203 -10.338687896728516 54.633769989013672
    endloop
  endfacet
  facet normal 0.0015895846036747888 0.0013041105537106301 0.99999788625599184
    outer loop
      vertex 16.359079360961914 -37.938686370849609 54.606521606445312
      vertex 44.293655395507812 10.111311912536621 54.499454498291016
      vertex 3.097381591796875 -28.738687515258789 54.615604400634766
    endloop
  endfacet
  facet normal 0.0028865421458675517 0.0031736670116573541 0.99999079781372957
    outer loop
      vertex 16.359079360961914 -37.938686370849609 54.606521606445312
      vertex 29.620777130126953 -47.138687133789062 54.597438812255859
      vertex 39.954109191894531 -31.805355072021484 54.518947601318359
    endloop
  endfacet
  facet normal 0.0036899364717207783 8.302951301212297e-05 0.99999318871427045
    outer loop
      vertex 39.954109191894531 -31.805355072021484 54.518947601318359
      vertex 44.293655395507812 10.111311912536621 54.499454498291016
      vertex 16.359079360961914 -37.938686370849609 54.606521606445312
    endloop
  endfacet
  facet normal 0.0060557827780596931 -0.0034318815656257189 0.99997577454849607
    outer loop
      vertex 44.293655395507812 10.111311912536621 54.499454498291016
      vertex 27.966533660888672 21.361312866210938 54.636940002441406
      vertex 3.097381591796875 -28.738687515258789 54.615604400634766
    endloop
  endfacet
  facet normal 0.0081588753687241444 -0.00037955261582477389 0.99996664378994637
    outer loop
      vertex 44.293655395507812 10.111311912536621 54.499454498291016
      vertex 50.287441253662109 -16.472021102905273 54.440460205078125
      vertex 60.620777130126953 -1.1386877298355103 54.361968994140625
    endloop
  endfacet
  facet normal 0.0081586010528040646 -0.00037961447118106683 0.9999666460046126
    outer loop
      vertex 44.293655395507812 10.111311912536621 54.499454498291016
      vertex 39.954109191894531 -31.805355072021484 54.518947601318359
      vertex 50.287441253662109 -16.472021102905273 54.440460205078125
    endloop
  endfacet
  facet normal 0.00028969802645999681 -0.00056966350311992288 0.99999979577925258
    outer loop
      vertex -10.164316177368164 -19.538686752319336 54.624687194824219
      vertex 3.097381591796875 -28.738687515258789 54.615604400634766
      vertex 27.966533660888672 21.361312866210938 54.636940002441406
    endloop
  endfacet
endsolid OBJECT
